# Blender v2.79 (sub 0) OBJ File: ''
# www.blender.org
mtllib BALLESTA.mtl
o Cube.002_Cube.001
v -0.471080 0.090947 -0.284772
v -0.471080 -0.060796 -0.284772
v -0.776162 -0.060796 -0.135301
v -0.776162 0.090947 -0.135301
v -0.776162 -0.060796 -0.026392
v -0.776162 0.090947 -0.026392
v -0.466934 0.090947 -0.198070
v -0.466934 -0.060796 -0.198070
v -0.081111 -0.060796 0.405938
v -0.081111 0.021923 0.405938
v -0.244182 0.080194 -0.446518
v -0.244182 -0.060796 -0.446518
v -0.383912 -0.060796 -0.245912
v -0.383912 0.090947 -0.245912
v -0.244182 -0.060796 -0.337609
v -0.027598 -0.060796 -0.446518
v -0.027598 -0.060796 -0.337609
v -0.244182 0.080194 -0.337609
v -0.027598 0.001806 -0.446518
v -0.024048 0.001806 -0.337868
v 0.225920 0.080542 -0.337609
v 0.225920 0.080542 -0.446518
v 0.225920 -0.060796 -0.337609
v 0.365375 -0.060796 -0.258286
v 0.365375 0.090947 -0.258286
v 0.225920 -0.060796 -0.446518
v 0.463596 -0.060796 -0.300709
v 0.767511 -0.060796 -0.135301
v 0.767511 -0.060796 -0.026392
v 0.440620 -0.060796 -0.203294
v 0.463596 0.090947 -0.284772
v 0.767511 0.090947 -0.026392
v 0.767511 0.090947 -0.135301
v 0.440620 0.090947 -0.203294
v 0.064068 -0.059373 0.404336
v -0.010667 -0.060796 0.384895
v -0.010667 0.021923 0.384895
v 0.064068 0.023346 0.404336
v -0.039796 0.021923 1.097155
v -0.039796 -0.060797 1.097155
v 0.060465 -0.059373 1.095556
v 0.060465 0.023346 1.095556
v 0.046159 -0.059373 0.426423
v -0.054103 -0.060796 0.427167
v -0.053393 -0.156041 0.502622
v 0.046872 -0.154618 0.501878
v 0.045387 -0.154618 0.404750
v -0.054875 -0.156041 0.406349
vt 0.447545 0.768792
vt 0.503022 0.676399
vt 0.620785 0.782348
vt 0.649828 0.864629
vt 0.643030 0.773171
vt 0.711061 0.798485
vt 0.642253 0.633963
vt 0.551792 0.646522
vt 0.633857 0.247362
vt 0.665475 0.257030
vt 0.275127 0.672435
vt 0.322391 0.601580
vt 0.494461 0.617005
vt 0.368176 0.563966
vt 0.246128 0.515722
vt 0.293274 0.479775
vt 0.176292 0.405743
vt 0.219047 0.372311
vt 0.200546 0.250616
vt 0.137822 0.230535
vt 0.067413 0.097670
vt 0.084283 0.081034
vt 0.190665 0.192500
vt 0.590806 0.190778
vt 0.604978 0.226206
vt 0.897914 0.911736
vt 0.923452 0.957735
vt 0.752590 0.957736
vt 0.706307 0.956997
vt 0.734011 0.920144
vt 0.479147 0.956937
vt 0.455799 0.996693
vt 0.374953 0.999795
vt 0.344436 0.956937
vt 0.446312 0.506496
vt 0.392879 0.503882
vt 0.128446 0.935591
vt 0.126809 0.988080
vt 0.000205 0.988206
vt 0.000205 0.935593
vt 0.216002 0.538998
vt 0.100002 0.434258
vt 0.927167 0.113033
vt 0.874555 0.113090
vt 0.874555 0.000205
vt 0.927047 0.001763
vt 0.315735 0.460096
vt 0.288142 0.361663
vt 0.291896 0.320032
vt 0.042876 0.256841
vt 0.267831 0.935591
vt 0.238281 0.979121
vt 0.160865 0.972882
vt 0.128857 0.935591
vt 0.058415 0.000205
vt 0.000205 0.060963
vt 0.889555 0.871411
vt 0.925195 0.905247
vt 0.880583 0.911311
vt 0.701026 0.911311
vt 0.726066 0.865039
vt 0.220007 0.106635
vt 0.700083 0.865039
vt 0.700615 0.911326
vt 0.352978 0.899513
vt 0.344436 0.865039
vt 0.560724 0.261358
vt 0.584891 0.156599
vt 0.701329 0.911736
vt 0.705896 0.956527
vt 0.344436 0.956527
vt 0.354571 0.920618
vt 0.874144 0.057829
vt 0.817498 0.068305
vt 0.803691 0.045112
vt 0.816284 0.000205
vt 0.344025 0.900994
vt 0.334398 0.935180
vt 0.000205 0.920551
vt 0.000205 0.872105
vt 0.334053 0.865039
vt 0.874556 0.160698
vt 0.922995 0.161177
vt 0.922995 0.219879
vt 0.874555 0.219400
vt 0.604506 0.189883
vt 0.921331 0.274746
vt 0.920567 0.288461
vt 0.874555 0.324913
vt 0.874555 0.277987
vt 0.874555 0.325324
vt 0.922996 0.325705
vt 0.923001 0.372218
vt 0.874555 0.372250
vt 0.635373 0.231935
vt 0.904417 0.223797
vt 0.920637 0.220289
vt 0.920637 0.268015
vt 0.874555 0.274335
vt 0.874555 0.159077
vt 0.885570 0.113500
vt 0.934016 0.113501
vt 0.947350 0.159326
vt 0.911846 0.160288
vn -0.4400 0.0000 -0.8980
vn -1.0000 0.0000 0.0000
vn -0.8427 -0.0000 0.5383
vn -0.5805 0.0000 -0.8143
vn -0.0000 -1.0000 -0.0000
vn 0.0049 -1.0000 0.0035
vn 0.0055 -1.0000 0.0038
vn 0.0069 -1.0000 0.0053
vn 0.0000 1.0000 0.0000
vn 0.0416 0.9988 -0.0246
vn 0.5487 -0.0000 0.8360
vn -0.2985 0.9544 0.0049
vn -0.0000 0.0000 -1.0000
vn 0.3379 0.9412 -0.0055
vn 0.0009 0.0014 1.0000
vn 0.0008 0.0013 1.0000
vn 0.0001 0.0014 1.0000
vn 0.0000 0.0013 1.0000
vn -0.0007 0.0013 1.0000
vn -0.4944 0.0000 0.8692
vn 0.5419 0.0456 -0.8392
vn -0.0377 0.9989 -0.0273
vn 1.0000 -0.0000 0.0000
vn 0.4595 0.0466 -0.8870
vn 0.4854 -0.0000 0.8743
vn -0.4759 -0.0000 0.8795
vn 0.0391 0.9954 0.0872
vn 0.8606 0.0000 -0.5092
vn -0.8633 0.0000 -0.5047
vn 0.8500 -0.0000 0.5268
vn -0.0488 0.9956 0.0794
vn 0.0159 0.0000 0.9999
vn -0.0117 0.9999 -0.0003
vn -0.0116 0.9999 -0.0003
vn -0.0030 0.6210 0.7838
vn 0.9943 -0.1069 0.0052
vn 0.9899 -0.0391 0.1364
vn 0.0142 -0.9999 -0.0002
vn -0.9864 -0.1535 0.0590
vn -0.9709 -0.0436 0.2354
vn 0.0142 -0.9999 -0.0003
vn -0.0117 -0.1301 -0.9914
usemtl DefaultMaterial.006
s 1
f 1/1/1 2/2/1 3/3/1
f 3/3/1 4/4/1 1/1/1
s 2
f 4/4/2 3/3/2 5/5/2
f 5/5/2 6/6/2 4/4/2
s 3
f 7/7/3 8/8/3 9/9/3
f 9/9/3 10/10/3 7/7/3
s 4
f 2/2/4 1/1/4 11/11/4
f 11/11/4 12/12/4 2/2/4
s 5
f 5/5/5 3/3/5 2/2/5
f 5/5/5 2/2/5 13/13/5
f 13/13/5 8/8/5 5/5/5
f 15/14/5 12/12/5 16/15/5
f 16/15/5 17/16/5 15/14/5
f 13/13/5 2/2/5 12/12/5
f 12/12/5 15/14/5 13/13/5
f 17/16/5 16/15/5 26/17/5
f 26/17/5 23/18/5 17/16/5
f 24/19/6 27/20/5 28/21/5
f 24/19/6 28/21/5 29/22/5
f 29/22/5 30/23/7 24/19/6
f 23/18/5 26/17/5 27/20/5
f 27/20/5 24/19/6 23/18/5
f 24/19/6 30/23/7 35/24/8
f 35/24/8 36/25/8 24/19/6
f 8/8/5 13/13/5 36/25/5
f 36/25/5 9/9/5 8/8/5
s 6
f 4/26/9 6/27/9 7/28/9
f 4/26/9 7/28/9 14/29/9
f 14/29/9 1/30/9 4/26/9
s 7
f 1/31/10 14/32/10 18/33/10
f 18/33/10 11/34/10 1/31/10
s 8
f 14/35/11 13/13/11 15/14/11
f 15/14/11 18/36/11 14/35/11
s 9
f 19/37/12 20/38/12 21/39/12
f 21/39/12 22/40/12 19/37/12
s 10
f 12/12/13 11/11/13 19/41/13
f 19/41/13 16/15/13 12/12/13
f 16/15/13 19/41/13 22/42/13
f 22/42/13 26/17/13 16/15/13
s 11
f 11/43/14 18/44/14 20/45/14
f 20/45/14 19/46/14 11/43/14
s 12
f 18/36/15 15/14/16 17/16/17
f 17/16/17 20/47/18 18/36/15
f 20/47/18 17/16/17 23/18/19
f 23/18/19 21/48/19 20/47/18
s 13
f 21/48/20 23/18/20 24/19/20
f 24/19/20 25/49/20 21/48/20
s 14
f 26/17/21 22/42/21 31/50/21
f 31/50/21 27/20/21 26/17/21
s 15
f 22/51/22 21/52/22 25/53/22
f 25/53/22 31/54/22 22/51/22
s 16
f 32/55/23 29/22/23 28/21/23
f 28/21/23 33/56/23 32/55/23
s 17
f 27/20/24 31/50/24 33/56/24
f 33/56/24 28/21/24 27/20/24
s 18
f 31/57/9 25/58/9 34/59/9
f 31/57/9 34/59/9 32/60/9
f 32/60/9 33/61/9 31/57/9
s 19
f 6/6/25 5/5/25 8/8/25
f 8/8/25 7/7/25 6/6/25
s 20
f 30/23/26 29/22/26 32/55/26
f 32/55/26 34/62/26 30/23/26
s 21
f 14/63/27 7/64/27 10/65/27
f 10/65/27 37/66/27 14/63/27
s 22
f 13/13/28 14/35/28 37/67/28
f 37/67/28 36/25/28 13/13/28
s 23
f 25/49/29 24/19/29 36/25/29
f 36/25/29 37/67/29 25/49/29
s 24
f 30/23/30 34/62/30 38/68/30
f 38/68/30 35/24/30 30/23/30
s 25
f 34/69/31 25/70/31 37/71/31
f 37/71/31 38/72/31 34/69/31
s 26
f 39/73/32 40/74/32 41/75/32
f 41/75/32 42/76/32 39/73/32
s 27
f 37/77/33 10/78/34 39/79/34
f 37/77/33 39/79/34 42/80/34
f 42/80/34 38/81/34 37/77/33
s 28
f 43/82/35 44/83/35 45/84/35
f 45/84/35 46/85/35 43/82/35
s 29
f 42/76/36 41/75/36 43/86/36
f 42/76/36 43/86/36 35/24/36
f 35/24/36 38/68/36 42/76/36
s 30
f 35/87/37 43/88/37 46/89/37
f 46/89/37 47/90/37 35/87/37
s 31
f 46/91/38 45/92/38 48/93/38
f 48/93/38 47/94/38 46/91/38
s 32
f 10/10/39 9/9/39 44/95/39
f 10/10/39 44/95/39 40/74/39
f 40/74/39 39/73/39 10/10/39
s 33
f 44/96/40 9/97/40 48/98/40
f 48/98/40 45/99/40 44/96/40
s 34
f 43/86/41 41/75/41 40/74/41
f 40/74/41 44/95/41 43/86/41
s 35
f 35/100/42 47/101/42 48/102/42
f 48/102/42 9/103/42 36/104/42
f 48/102/42 36/104/42 35/100/42
