# File produced by Open Asset Import Library (http://www.assimp.sf.net)
# (assimp v3.1.68452469)

mtllib casa.mtl

# 92 vertex positions
v  -0.112029 1.83322 -2.08283
v  -1.85642 1.6362 -0.605625
v  1.85747 1.6362 -0.605625
v  0.122939 1.85814 -2.05251
v  1.03676 1.38389 -1.24443
v  1.31947 1.35033 -1.0086
v  0.113077 -1.85887 -2.08283
v  1.8273 -1.71526 -0.598627
v  -1.82437 -1.71132 -0.608817
v  -0.112029 -1.85887 -2.08283
v  -0.742462 -0.009177 -1.75129
v  -0.112029 1.99458 -2.08283
v  -0.112029 1.99458 -2.31117
v  -0.112029 -2.00542 -2.26164
v  -0.112029 -2.00542 -2.08283
v  0.113077 -2.00542 -2.26164
v  0.113077 -2.00542 -2.08283
v  0.113077 1.99458 -2.08283
v  0.113077 1.99458 -2.29451
v  1.73679 -1.73201 -0.347047
v  1.5627 -1.62526 0.655898
v  -1.52173 -1.64965 0.696268
v  -1.72821 -1.71575 -0.38781
v  1.56388 -1.69136 1.62006
v  -1.56283 -1.69136 1.68883
v  1.63332 -1.76349 0.669603
v  1.78406 -1.86188 -0.36375
v  -1.71211 1.57505 0.668663
v  -1.61722 1.52049 0.655898
v  -1.68352 1.54648 1.62408
v  -1.7784 1.64115 1.63116
v  -1.59138 -1.71987 0.669603
v  -1.64385 -1.7956 1.63735
v  -1.65772 1.7614 1.6463
v  -1.56283 1.66674 1.66741
v  -1.49654 1.62187 0.655898
v  -1.59142 1.6953 0.668663
v  -1.77835 -1.66571 1.60526
v  -1.68352 -1.5711 1.62875
v  -1.6476 -1.51681 0.655898
v  -1.71206 -1.59961 0.669603
v  1.7794 -1.66571 1.57605
v  1.68456 -1.5711 1.56235
v  1.65872 -1.78597 1.57605
v  1.81104 1.79538 -0.409676
v  1.73679 1.7255 -0.387809
v  1.49759 1.60064 0.655898
v  1.59247 1.6953 0.668663
v  -1.81005 -1.59448 -0.38781
v  -1.84832 1.61436 -0.411476
v  1.754 -1.64323 0.669603
v  1.97053 -1.7101 -0.37062
v  1.68338 -1.55575 0.655898
v  1.85747 -1.6628 -0.367133
v  -1.95807 -1.67675 -0.375562
v  -1.77954 -1.85375 -0.384132
v  -1.78325 1.83899 -0.399181
v  -1.97723 1.66434 -0.387866
v  -1.73574 1.7255 -0.366817
v  1.66675 1.59705 0.668663
v  1.65877 1.7614 1.61957
v  1.78071 1.64112 1.62044
v  1.97056 1.66863 -0.376841
v  1.56388 1.66674 1.61578
v  1.68679 1.54647 1.61393
v  -0.298016 1.6148 0.655898
v  0.285669 1.60772 0.655898
v  -0.320114 1.66674 1.6502
v  1.58217 1.52011 0.662281
v  1.85747 1.62129 -0.378635
v  1.98875 1.6362 -0.605625
v  1.85734 1.73047 -0.583403
v  -1.82466 -1.8254 -0.615167
v  1.82701 -1.82933 -0.552209
v  -1.82856 1.77972 -0.583067
v  -2.01125 1.68528 -0.594837
v  -1.97919 -1.71294 -0.59803
v  -0.319671 1.75395 1.6441
v  0.307765 1.66674 1.63299
v  0.308208 1.75395 1.62689
v  0.28611 1.69494 0.6498
v  -0.297573 1.70201 0.6498
v  1.29553 0.827633 -2.13174
v  1.31947 0.882341 -0.965572
v  1.03515 0.849569 -1.20634
v  0.942918 0.786988 -2.21336
v  0.944912 1.44964 -2.20723
v  1.29553 1.40802 -2.13174
v  -1.36801 -0.484786 -0.748124
v  -1.56307 -0.009378 -1.85896
v  -1.36801 0.47204 -0.748124
v  1.98875 -1.6578 -0.552858

# 165 UV coordinates
vt 0.689024 0.591984 0
vt 0.513956 0.514871 0
vt 0.87767 0.524873 0
vt 0.703998 0.585492 0
vt 0.787325 0.586169 0
vt 0.8195 0.578119 0
vt 0.713576 0.791704 0
vt 0.909779 0.87658 0
vt 0.518047 0.87658 0
vt 0.698266 0.787529 0
vt 0.648453 0.688529 0
vt 0.827232 0.300606 0
vt 0.824654 0.093751 0
vt 0.824654 0.000242 0
vt 0.84546 0.037309 0
vt 0.839338 0.301058 0
vt 0.834203 0.313101 0
vt 0.853238 0.302575 0
vt 0.858653 0.314408 0
vt 0.550127 0.484837 0
vt 0.550127 0.473614 0
vt 0.567366 0.473614 0
vt 0.567366 0.484837 0
vt 0.872457 0.018947 0
vt 0.86414 0.033331 0
vt 0.549468 0.473614 0
vt 0.549642 0.48597 0
vt 0.531474 0.484317 0
vt 0.53223 0.473614 0
vt 0.884481 0.028408 0
vt 0.870269 0.302891 0
vt 0.323573 0.497618 0
vt 0.293637 0.410932 0
vt 0.457204 0.26427 0
vt 0.528696 0.274313 0
vt 0.000242 0.762966 0
vt 0.068125 0.750433 0
vt 0.239936 0.909099 0
vt 0.230476 0.996964 0
vt 0.286898 0.421896 0
vt 0.310591 0.506071 0
vt 0.511385 0.74605 0
vt 0.513471 0.754228 0
vt 0.440332 0.757088 0
vt 0.447953 0.749299 0
vt 0.242589 0.999758 0
vt 0.245823 0.919168 0
vt 0.445628 0.744057 0
vt 0.436221 0.740176 0
vt 0.507751 0.718594 0
vt 0.508623 0.727813 0
vt 0.253863 0.920429 0
vt 0.261286 0.906848 0
vt 0.274708 0.999058 0
vt 0.264544 0.998342 0
vt 0.059005 0.739861 0
vt 0.068351 0.733833 0
vt 0.059687 0.745841 0
vt 0.000242 0.270581 0
vt 0.007595 0.257662 0
vt 0.120205 0.272492 0
vt 0.112884 0.277913 0
vt 0.52433 0.226255 0
vt 0.458126 0.249098 0
vt 0.327052 0.114036 0
vt 0.349577 0.006651 0
vt 0.000965 0.748138 0
vt 0.001432 0.731809 0
vt 0.274288 0.424703 0
vt 0.287577 0.514386 0
vt 0.001452 0.7235 0
vt 0.276158 0.513426 0
vt 0.265272 0.424216 0
vt 0.52972 0.239757 0
vt 0.530989 0.262202 0
vt 0.464305 0.260429 0
vt 0.463248 0.25285 0
vt 0.322069 0.097832 0
vt 0.308578 0.09824 0
vt 0.298578 0.000242 0
vt 0.333483 0.002156 0
vt 0.301031 0.1197 0
vt 0.285067 0.008275 0
vt 0.215252 0.515685 0
vt 0.227318 0.515984 0
vt 0.224242 0.575972 0
vt 0.218922 0.575217 0
vt 0.000242 0.300987 0
vt 0.111258 0.289096 0
vt 0.236999 0.514871 0
vt 0.230455 0.584286 0
vt 0.21251 0.584717 0
vt 0.233863 0.173889 0
vt 0.197392 0.203256 0
vt 0.352548 0.677539 0
vt 0.414999 0.607927 0
vt 0.128811 0.29772 0
vt 0.006359 0.316721 0
vt 0.206853 0.514871 0
vt 0.821744 0.336944 0
vt 0.808342 0.360151 0
vt 0.793501 0.34177 0
vt 0.803622 0.333639 0
vt 0.531474 0.3271 0
vt 0.531474 0.028876 0
vt 0.55291 0.035495 0
vt 0.547955 0.323562 0
vt 0.795022 0.332007 0
vt 0.794285 0.027313 0
vt 0.806715 0.026658 0
vt 0.795834 0.015791 0
vt 0.806585 0.000242 0
vt 0.824169 0.023916 0
vt 0.551126 0.005312 0
vt 0.562465 0.025555 0
vt 0.562025 0.036395 0
vt 0.557994 0.322701 0
vt 0.351358 0.668869 0
vt 0.30572 0.641693 0
vt 0.316738 0.638647 0
vt 0.357244 0.575403 0
vt 0.398579 0.610811 0
vt 0.354236 0.560992 0
vt 0.779163 0.437813 0
vt 0.689832 0.433809 0
vt 0.709751 0.413229 0
vt 0.787311 0.411139 0
vt 0.832012 0.618535 0
vt 0.800491 0.626617 0
vt 0.709006 0.372214 0
vt 0.782334 0.360635 0
vt 0.880448 0.387507 0
vt 0.80642 0.381957 0
vt 0.787795 0.360635 0
vt 0.873937 0.360635 0
vt 0.775095 0.482072 0
vt 0.689832 0.469798 0
vt 0.815276 0.391043 0
vt 0.815496 0.435489 0
vt 0.787796 0.43874 0
vt 0.787795 0.387992 0
vt 0.806742 0.494323 0
vt 0.803005 0.503321 0
vt 0.5371 0.499991 0
vt 0.531474 0.494323 0
vt 0.689347 0.360637 0
vt 0.578739 0.473129 0
vt 0.608146 0.394671 0
vt 0.561165 0.732055 0
vt 0.563805 0.645974 0
vt 0.531474 0.360635 0
vt 0.548329 0.347954 0
vt 0.561279 0.334914 0
vt 0.896858 0.000242 0
vt 0.905519 0.003867 0
vt 0.905521 0.255363 0
vt 0.896858 0.258984 0
vt 0.531474 0.514386 0
vt 0.535105 0.504363 0
vt 0.800471 0.503805 0
vt 0.804376 0.514386 0
vt 0.896373 0.256105 0
vt 0.884965 0.249866 0
vt 0.886355 0.004118 0
vt 0.896373 0.000242 0

# 88 vertex normals
vn -0.0073 0.9899 0.1418
vn 0.63 -0.099 -0.7703
vn -0.0013 -0.9952 0.0979
vn -0.4655 -0 -0.8851
vn -1 -0 0
vn 0 -1 0
vn 0 0 1
vn 0 1 0
vn 0.037 -0.0103 -0.9993
vn -0.0708 0.0987 0.9926
vn 0.9997 -0 -0.0226
vn 0.0012 -0.9966 0.0825
vn 0.003 -0.9985 -0.055
vn -0.9108 -0.3993 -0.1051
vn -0.6184 -0.7858 -0.005
vn 0.7575 -0.6528 -0.003
vn 0.663 0.7486 0.0024
vn -0.7441 0.668 0.0023
vn 0.1955 0.039 0.9799
vn -0.6974 0.7127 -0.0749
vn -0.9831 -0.0005 0.1833
vn 0.7054 -0.7078 -0.0373
vn 0.655 -0.7352 0.1746
vn 0.7399 0.6727 0.0032
vn -0.816 -0.5778 -0.0158
vn 0.5895 0.8066 0.0436
vn -0.6906 -0.7168 -0.0965
vn -0.6857 -0.6964 0.2119
vn 0.8644 -0.4897 -0.1138
vn -0.3643 -0.0287 0.9308
vn -0.6078 0.7918 0.0602
vn -0.6995 0.7081 -0.0961
vn -0.6627 0.7156 0.221
vn 0.7967 0.5971 -0.0936
vn -0.1557 -0.0831 0.9843
vn -0.4205 -0.9071 0.02
vn 0.7399 0.6639 -0.1085
vn 0.6601 0.7181 0.2204
vn -0.7063 0.7079 0
vn -0.0249 -0.0294 0.9993
vn -0.9986 0.0049 -0.0525
vn 0.0036 0.9939 0.1099
vn 0.0026 0.9988 -0.0481
vn 0.5284 -0.8455 0.0767
vn 0.694 -0.718 -0.0531
vn 0.977 0.0157 0.2127
vn 0.9982 0.0165 -0.0569
vn 0.6044 0.791 -0.0944
vn 0 -0.9896 -0.1437
vn 0.0012 0.1849 -0.9828
vn -0.5809 0.8131 0.0382
vn -0.6474 -0.7545 0.1076
vn 0.0097 -0.173 -0.9849
vn 0.07 -0.0556 0.996
vn -0.0695 0.0003 -0.9976
vn 0.0273 0.0696 0.9972
vn 0.005 0.9984 -0.0562
vn 0.0024 0.9979 -0.0646
vn -0.9997 0.0035 -0.0224
vn 0.9997 -0.0066 -0.0222
vn -0.0008 -0.0697 -0.9976
vn 0.0899 -0.9947 0.0489
vn 0.6521 0.0219 -0.7578
vn 0.5707 -0.0153 -0.821
vn 0.6782 -0.0032 -0.7349
vn 0 0.2294 -0.9733
vn -0.9956 0.0055 0.0931
vn 0.0916 0.9943 0.0538
vn 0.9998 -0.0009 -0.0209
vn 0.2181 0.0045 -0.9759
vn 0.006 0.2828 0.9592
vn 0.0116 0.9446 -0.328
vn -0.0185 0.1587 -0.9871
vn 0.0528 -0.9147 -0.4007
vn -0.7274 0.0017 -0.6862
vn -0.7235 -0.0092 -0.6902
vn -0.2858 -0.0014 -0.9583
vn -0.9849 -0 0.1729
vn 0.0529 0.9128 -0.4049
vn 0.9961 0.0008 0.0883
vn 0.1563 -0.0096 -0.9877
vn 0.0075 0.0027 1
vn 0.3689 -0.3511 -0.8606
vn -0.0089 -0.0484 0.9988
vn 0.6787 -0.7323 -0.0556
vn -0.9918 -0.0074 0.1276
vn 0.1277 0.0066 0.9918
vn 0.0116 0.0035 0.9999

# Mesh 'Cube.001_Cube.001' with 180 faces
g Cube.001_Cube.001
usemtl DefaultMaterial
f  1/1/1 2/2/1 3/3/1
f  3/3/1 4/4/1 1/1/1
f  5/5/2 4/4/2 3/3/2
f  3/3/2 6/6/2 5/5/2
f  7/7/3 8/8/3 9/9/3
f  9/9/3 10/10/3 7/7/3
f  1/1/4 10/10/4 11/11/4
f  10/12/5 1/13/5 12/14/5
f  10/12/5 12/14/5 13/15/5
f  10/12/5 13/15/5 14/16/5
f  14/16/5 15/17/5 10/12/5
f  16/18/6 17/19/6 15/17/6
f  15/17/6 14/16/6 16/18/6
f  17/20/7 7/21/7 10/22/7
f  10/22/7 15/23/7 17/20/7
f  13/15/8 12/14/8 18/24/8
f  18/24/8 19/25/8 13/15/8
f  14/16/9 13/15/9 19/25/9
f  19/25/9 16/18/9 14/16/9
f  12/26/10 1/27/10 4/28/10
f  4/28/10 18/29/10 12/26/10
f  18/24/11 4/30/11 7/31/11
f  18/24/11 7/31/11 17/19/11
f  18/24/11 17/19/11 16/18/11
f  16/18/11 19/25/11 18/24/11
f  20/32/12 21/33/12 22/34/12
f  22/34/12 23/35/12 20/32/12
f  21/36/13 24/37/13 25/38/13
f  25/38/13 22/39/13 21/36/13
f  26/40/14 21/33/14 20/32/14
f  20/32/14 27/41/14 26/40/14
f  28/42/15 29/43/15 30/44/15
f  30/44/15 31/45/15 28/42/15
f  32/46/16 22/39/16 25/38/16
f  25/38/16 33/47/16 32/46/16
f  34/48/17 35/49/17 36/50/17
f  36/50/17 37/51/17 34/48/17
f  38/52/18 39/53/18 40/54/18
f  40/54/18 41/55/18 38/52/18
f  42/56/19 43/57/19 24/37/19
f  24/37/19 44/58/19 42/56/19
f  45/59/20 46/60/20 47/61/20
f  47/61/20 48/62/20 45/59/20
f  49/63/21 40/64/21 29/65/21
f  29/65/21 50/66/21 49/63/21
f  42/56/22 44/58/22 26/67/22
f  26/67/22 51/68/22 42/56/22
f  51/69/23 26/40/23 27/41/23
f  27/41/23 52/70/23 51/69/23
f  51/68/24 53/71/24 43/57/24
f  43/57/24 42/56/24 51/68/24
f  44/58/25 24/37/25 21/36/25
f  21/36/25 26/67/25 44/58/25
f  52/70/26 54/72/26 53/73/26
f  53/73/26 51/69/26 52/70/26
f  41/55/27 32/46/27 33/47/27
f  33/47/27 38/52/27 41/55/27
f  55/74/28 56/75/28 32/76/28
f  32/76/28 41/77/28 55/74/28
f  56/75/29 23/35/29 22/34/29
f  22/34/29 32/76/29 56/75/29
f  33/47/30 25/38/30 39/53/30
f  39/53/30 38/52/30 33/47/30
f  41/77/31 40/64/31 49/63/31
f  49/63/31 55/74/31 41/77/31
f  37/51/32 28/42/32 31/45/32
f  31/45/32 34/48/32 37/51/32
f  28/78/33 37/79/33 57/80/33
f  57/80/33 58/81/33 28/78/33
f  37/79/34 36/82/34 59/83/34
f  59/83/34 57/80/34 37/79/34
f  31/45/35 30/44/35 35/49/35
f  35/49/35 34/48/35 31/45/35
f  58/81/36 50/66/36 29/65/36
f  29/65/36 28/78/36 58/81/36
f  60/84/37 48/85/37 61/86/37
f  61/86/37 62/87/37 60/84/37
f  63/88/38 45/59/38 48/62/38
f  48/62/38 60/89/38 63/88/38
f  48/85/39 47/90/39 64/91/39
f  64/91/39 61/86/39 48/85/39
f  61/86/40 64/91/40 65/92/40
f  65/92/40 62/87/40 61/86/40
f  40/54/41 39/53/41 30/44/41
f  30/44/41 29/43/41 40/54/41
f  47/61/42 46/60/42 59/83/42
f  47/61/42 59/83/42 36/82/42
f  47/61/42 36/82/42 66/93/42
f  66/93/42 67/94/42 47/61/42
f  35/49/43 68/95/43 66/96/43
f  66/96/43 36/50/43 35/49/43
f  63/88/44 60/89/44 69/97/44
f  69/97/44 70/98/44 63/88/44
f  69/99/45 60/84/45 62/87/45
f  62/87/45 65/92/45 69/99/45
f  69/97/46 53/73/46 54/72/46
f  54/72/46 70/98/46 69/97/46
f  43/57/47 53/71/47 69/99/47
f  69/99/47 65/92/47 43/57/47
f  45/100/48 63/101/48 71/102/48
f  71/102/48 72/103/48 45/100/48
f  27/104/49 56/105/49 73/106/49
f  73/106/49 74/107/49 27/104/49
f  72/103/50 3/108/50 2/109/50
f  2/109/50 75/110/50 72/103/50
f  76/111/51 58/112/51 57/113/51
f  57/113/51 75/110/51 76/111/51
f  73/106/52 56/105/52 55/114/52
f  55/114/52 77/115/52 73/106/52
f  73/106/53 9/116/53 8/117/53
f  8/117/53 74/107/53 73/106/53
f  9/116/54 77/115/54 73/106/54
f  76/111/55 2/109/55 9/116/55
f  9/116/55 77/115/55 76/111/55
f  78/118/56 68/95/56 79/119/56
f  79/119/56 80/120/56 78/118/56
f  78/118/57 80/120/57 81/121/57
f  81/121/57 82/122/57 78/118/57
f  67/123/58 79/119/58 64/91/58
f  64/91/58 47/90/58 67/123/58
f  82/122/59 66/96/59 68/95/59
f  68/95/59 78/118/59 82/122/59
f  80/120/60 79/119/60 67/123/60
f  67/123/60 81/121/60 80/120/60
f  81/121/61 67/123/61 66/96/61
f  66/96/61 82/122/61 81/121/61
f  83/124/62 84/125/62 85/126/62
f  85/126/62 86/127/62 83/124/62
f  84/128/63 8/8/63 7/7/63
f  7/7/63 85/129/63 84/128/63
f  6/6/64 3/3/64 8/8/64
f  8/8/64 84/128/64 6/6/64
f  85/129/65 7/7/65 4/4/65
f  4/4/65 5/5/65 85/129/65
f  71/102/66 3/108/66 72/103/66
f  86/127/67 85/126/67 5/130/67
f  5/130/67 87/131/67 86/127/67
f  87/132/68 5/133/68 6/134/68
f  6/134/68 88/135/68 87/132/68
f  88/136/69 6/137/69 84/125/69
f  84/125/69 83/124/69 88/136/69
f  88/138/70 83/139/70 86/140/70
f  86/140/70 87/141/70 88/138/70
f  57/142/71 59/143/71 46/144/71
f  46/144/71 45/145/71 57/142/71
f  45/100/72 72/103/72 75/110/72
f  75/110/72 57/113/72 45/100/72
f  75/110/73 2/109/73 76/111/73
f  11/146/74 89/147/74 90/148/74
f  11/11/75 10/10/75 9/9/75
f  9/9/75 89/149/75 11/11/75
f  91/150/76 2/2/76 1/1/76
f  1/1/76 11/11/76 91/150/76
f  89/149/77 9/9/77 2/2/77
f  2/2/77 91/150/77 89/149/77
f  89/147/78 91/151/78 90/148/78
f  91/151/79 11/146/79 90/148/79
f  71/102/80 63/101/80 52/152/80
f  52/152/80 92/153/80 71/102/80
f  92/153/81 8/117/81 3/108/81
f  3/108/81 71/102/81 92/153/81
f  63/154/82 70/155/82 54/156/82
f  54/156/82 52/157/82 63/154/82
f  74/107/83 8/117/83 92/153/83
f  27/158/84 20/159/84 23/160/84
f  23/160/84 56/161/84 27/158/84
f  92/153/85 52/152/85 27/104/85
f  27/104/85 74/107/85 92/153/85
f  76/111/86 77/115/86 55/114/86
f  55/114/86 58/112/86 76/111/86
f  55/162/87 49/163/87 50/164/87
f  50/164/87 58/165/87 55/162/87
f  30/44/88 39/53/88 25/38/88
f  30/44/88 25/38/88 24/37/88
f  30/44/88 24/37/88 43/57/88
f  30/44/88 43/57/88 65/92/88
f  30/44/88 65/92/88 64/91/88
f  30/44/88 64/91/88 79/119/88
f  30/44/88 79/119/88 68/95/88
f  68/95/88 35/49/88 30/44/88

