# Blender v2.79 (sub 0) OBJ File: ''
# www.blender.org
mtllib FLECHA.mtl
o Circle
v -0.001031 -0.062484 1.034751
v 0.054717 -0.031287 1.034751
v -0.001031 0.062339 1.034751
v 0.054717 0.031142 1.034751
v -0.056796 0.031142 1.034751
v -0.056796 -0.031287 1.034751
v -0.056796 0.031142 -0.973493
v -0.211172 -0.036092 -0.912914
v -0.056796 -0.031287 -0.973493
v -0.211172 0.035947 -0.912914
v -0.001031 -0.062484 -0.973493
v 0.059485 -0.020592 0.786291
v 0.059485 -0.020592 0.942293
v 0.054717 -0.031287 -0.973493
v -0.046138 -0.024311 0.789406
v -0.046138 -0.024311 0.939178
v -0.001031 0.062339 -0.973493
v 0.054717 0.031142 -0.973493
v -0.001031 0.071967 -0.990823
v -0.001031 -0.000072 -1.165167
v -0.001031 -0.072112 -0.990823
v 0.209109 -0.036092 -0.912914
v 0.209109 0.035947 -0.912914
v -0.056503 0.021746 0.939178
v -0.222609 -0.024311 1.039278
v -0.232973 0.021746 1.039278
v -0.056503 0.021746 0.789406
v 0.059485 0.020447 0.942293
v 0.228545 0.020447 0.883944
v 0.059485 0.020447 0.786291
v 0.228545 0.020447 1.039946
v 0.228545 -0.020592 1.039946
v 0.228545 -0.020592 0.883944
v -0.222609 -0.024311 0.889505
v -0.232973 0.021746 0.889505
vt 0.243490 0.142219
vt 0.252904 0.124906
vt 0.281123 0.142231
vt 0.271721 0.124912
vt 0.271709 0.159544
vt 0.252892 0.159538
vt 0.169353 0.336788
vt 0.225991 0.357056
vt 0.169353 0.355605
vt 0.225991 0.335337
vt 0.018546 0.000643
vt 0.000152 0.933756
vt 0.000152 0.000643
vt 0.018547 0.933756
vt 0.112107 0.000152
vt 0.101723 0.225396
vt 0.104258 0.084454
vt 0.102853 0.804933
vt 0.027924 0.240993
vt 0.026785 0.094991
vt 0.305283 0.000152
vt 0.285576 0.999848
vt 0.285576 0.000152
vt 0.305283 0.999848
vt 0.325294 0.000152
vt 0.305587 0.999848
vt 0.305587 0.000152
vt 0.325294 0.999848
vt 0.076247 0.000644
vt 0.032879 0.933942
vt 0.057839 0.000152
vt 0.051287 0.934434
vt 0.267082 0.124602
vt 0.198841 0.089617
vt 0.198841 0.000152
vt 0.168255 0.357360
vt 0.189097 0.366923
vt 0.112411 0.366923
vt 0.187955 0.357893
vt 0.264944 0.366391
vt 0.189401 0.357360
vt 0.266087 0.357360
vt 0.245245 0.366923
vt 0.133254 0.376790
vt 0.112411 0.367227
vt 0.189097 0.367227
vt 0.113554 0.376258
vt 0.190544 0.367760
vt 0.266087 0.376790
vt 0.189401 0.376790
vt 0.210244 0.367227
vt 0.169049 0.355605
vt 0.112411 0.335337
vt 0.169049 0.336788
vt 0.112411 0.357056
vt 0.238156 0.264111
vt 0.281170 0.200625
vt 0.281170 0.342556
vt 0.130601 0.124602
vt 0.112411 0.112732
vt 0.285272 0.112732
vt 0.116952 0.036181
vt 0.228876 0.197895
vt 0.243186 0.124906
vt 0.243186 0.200321
vt 0.230306 0.135187
vt 0.044421 0.241131
vt 0.049238 0.094653
vt 0.130385 0.276635
vt 0.175473 0.221711
vt 0.229106 0.271713
vt 0.123061 0.213901
vt 0.084913 0.084197
vt 0.076551 0.000152
vt 0.088341 0.225543
vt 0.090798 0.804976
vt 0.112411 0.200625
vt 0.181095 0.211301
vt 0.237851 0.261904
vt 0.183963 0.278050
vt 0.165172 0.335032
vt 0.112411 0.278050
vt 0.236724 0.335032
vt 0.112411 0.277746
vt 0.178950 0.128898
vt 0.187348 0.143700
vt 0.126069 0.200269
vt 0.112411 0.189597
vt 0.325598 0.049982
vt 0.380404 0.074707
vt 0.325598 0.124537
vt 0.380404 0.000152
vn 0.0000 0.0000 1.0000
vn 0.3653 0.0000 0.9309
vn -0.4886 -0.8725 0.0000
vn 0.9137 -0.4064 0.0000
vn -0.5471 0.8371 0.0000
vn -0.5469 0.8372 -0.0000
vn -0.5470 0.8371 0.0000
vn 0.4883 -0.8727 0.0000
vn 0.4883 0.8727 -0.0000
vn -0.4886 0.8725 -0.0000
vn -0.2873 0.8852 -0.3658
vn -0.3053 0.0127 0.9522
vn 0.2470 -0.6445 0.7236
vn -0.3608 0.0990 0.9274
vn 0.4394 -0.7852 0.4363
vn -0.1031 0.7300 0.6756
vn -0.2877 -0.1054 0.9519
vn -0.0302 0.8737 0.4854
vn -0.2958 -0.5285 0.7957
vn 0.3053 -0.0129 0.9522
vn -0.2470 0.6445 0.7236
vn 0.3608 -0.0992 0.9273
vn -0.4393 0.7853 0.4363
vn 0.1031 -0.7301 0.6756
vn 0.2877 0.1056 0.9519
vn 0.0302 -0.8737 0.4854
vn 0.2958 0.5287 0.7956
vn -0.3653 0.0000 0.9309
vn -0.2873 -0.8852 -0.3658
vn 0.7683 0.0000 -0.6401
vn -0.7683 0.0000 -0.6401
vn 0.2873 -0.8852 -0.3658
vn 0.2873 0.8852 -0.3658
vn 0.4904 0.1104 0.8645
vn -1.0000 -0.0038 0.0003
vn -0.9766 -0.2147 0.0066
vn -1.0000 0.0000 0.0002
vn -0.9756 -0.2196 0.0068
vn -0.9971 -0.0648 -0.0390
vn -0.9867 -0.1406 -0.0811
vn -0.9681 -0.2179 -0.1239
vn -1.0000 0.0000 -0.0031
vn -0.9995 -0.0312 0.0000
vn -0.0000 1.0000 -0.0000
vn 0.9987 0.0000 0.0515
vn 0.9138 0.4062 0.0000
vn 1.0000 0.0000 -0.0027
vn 1.0000 0.0000 0.0000
vn 0.5002 0.0000 -0.8659
vn 0.0000 -1.0000 0.0000
vn -0.5002 0.0000 0.8659
vn -0.9756 -0.2195 0.0000
vn -0.4904 -0.1104 -0.8645
usemtl None.002
s 1
f 1/1/1 2/2/1 3/3/1
f 2/2/1 4/4/1 3/3/1
f 3/3/1 5/5/1 6/6/1
f 6/6/1 1/1/1 3/3/1
s 2
f 7/7/2 8/8/2 9/9/2
f 7/7/2 10/10/2 8/8/2
s 3
f 6/11/3 11/12/3 1/13/3
f 6/11/3 9/14/3 11/12/3
s 4
f 2/15/4 12/16/4 13/17/4
f 2/15/4 14/18/4 12/16/4
s 5
f 6/11/5 15/19/6 9/14/6
f 6/11/5 16/20/7 15/19/6
s 6
f 1/21/8 14/22/8 2/23/8
f 1/21/8 11/24/8 14/22/8
s 7
f 4/25/9 17/26/9 3/27/9
f 4/25/9 18/28/9 17/26/9
s 8
f 3/29/10 7/30/10 5/31/10
f 3/29/10 17/32/10 7/30/10
s 9
f 10/33/11 19/34/11 20/35/11
s 10
f 14/36/12 21/37/13 22/38/14
f 14/36/12 11/39/15 21/37/13
s 11
f 17/40/16 23/41/17 19/42/18
f 17/40/16 18/43/19 23/41/17
s 12
f 7/44/20 19/45/21 10/46/22
f 7/44/20 17/47/23 19/45/21
s 13
f 11/48/24 8/49/25 21/50/26
f 11/48/24 9/51/27 8/49/25
s 14
f 14/52/28 23/53/28 18/54/28
f 14/52/28 22/55/28 23/53/28
s 15
f 21/56/29 8/57/29 20/58/29
s 16
f 23/59/30 22/60/30 20/35/30
s 17
f 8/61/31 10/33/31 20/35/31
s 18
f 22/60/32 21/62/32 20/35/32
s 19
f 19/34/33 23/59/33 20/35/33
s 20
f 24/63/34 25/64/34 16/65/34
f 24/63/34 26/66/34 25/64/34
s 21
f 9/14/35 27/67/36 7/30/37
f 9/14/35 15/19/38 27/67/36
s 22
f 6/11/39 24/68/40 16/20/41
f 6/11/39 5/31/42 24/68/40
s 23
f 5/31/43 27/67/43 24/68/43
f 5/31/43 7/30/43 27/67/43
s 24
f 28/69/44 29/70/44 30/71/44
f 28/69/44 31/72/44 29/70/44
s 25
f 2/15/45 28/73/45 4/74/45
f 2/15/45 13/17/45 28/73/45
s 26
f 4/74/46 30/75/46 18/76/46
f 4/74/46 28/73/46 30/75/46
s 27
f 18/76/47 12/16/47 14/18/47
f 18/76/47 30/75/47 12/16/47
s 28
f 32/77/48 29/70/48 31/72/48
f 32/77/48 33/78/48 29/70/48
s 29
f 30/71/49 33/78/49 12/79/49
f 30/71/49 29/70/49 33/78/49
s 30
f 13/80/50 33/81/50 32/82/50
f 13/80/50 12/83/50 33/81/50
s 31
f 13/84/51 31/72/51 28/69/51
f 13/84/51 32/77/51 31/72/51
s 32
f 26/66/52 34/85/52 25/64/52
f 26/66/52 35/86/52 34/85/52
s 33
f 24/63/44 35/86/44 26/66/44
f 24/63/44 27/87/44 35/86/44
s 34
f 27/87/53 34/85/53 35/86/53
f 27/87/53 15/88/53 34/85/53
s 35
f 16/89/50 34/90/50 15/91/50
f 16/89/50 25/92/50 34/90/50
