# Blender v2.79 (sub 0) OBJ File: ''
# www.blender.org
mtllib HACHA.mtl
o Circle.001
v -0.044432 0.775599 -0.072453
v -0.095260 0.775599 -0.198407
v -0.105073 -0.359170 -0.014279
v -0.060293 -0.359170 0.096688
v -0.027497 2.472613 -0.156189
v -0.150381 2.472613 0.000960
v -0.075728 2.472613 0.185955
v 0.121809 2.472613 0.213800
v 0.244692 2.472613 0.056652
v 0.170039 2.472613 -0.128343
v 0.090060 0.775599 -0.053494
v 0.173725 0.775599 -0.160489
v 0.113650 2.136836 -0.123392
v 0.006256 2.136836 -0.132274
v 0.122898 0.775599 -0.286442
v 0.078376 2.171724 0.138913
v 0.069692 1.548504 0.067454
v -0.011595 0.775599 -0.305401
v -0.103626 2.541461 0.748653
v -0.103626 1.178768 0.748653
v -0.012588 2.171724 0.118204
v -0.021272 1.548504 0.046745
v 0.006256 1.702263 -0.132274
v 0.017533 2.272289 -0.268624
v 0.017533 1.574065 -0.268624
v 0.113650 1.702263 -0.123392
v 0.124927 1.574065 -0.259742
v 0.124927 2.272289 -0.259742
v 0.131908 -0.359170 0.019127
v 0.058197 -0.359170 0.113391
v -0.062222 -1.236295 0.178361
v 0.034503 -1.236295 0.054664
v 0.087128 -0.359170 -0.091840
v -0.031362 -0.359170 -0.108543
v -0.024258 -1.236295 -0.090950
v 0.244693 -2.628747 0.056652
v 0.170039 -2.628747 -0.128343
v -0.276471 -1.236295 0.010828
v -0.217709 -1.236295 0.156443
v -0.179746 -1.236295 -0.112869
v -0.027497 -2.628747 -0.156188
v 0.121810 -2.628747 0.213801
v -0.075728 -2.628747 0.185955
v -0.150381 -2.628747 0.000960
vt 0.137185 0.671757
vt 0.112924 0.438028
vt 0.137446 0.437093
vt 0.111008 0.673275
vt 0.305562 0.359187
vt 0.338821 0.339985
vt 0.372081 0.359187
vt 0.372081 0.397592
vt 0.338821 0.416795
vt 0.305562 0.397592
vt 0.494776 0.002112
vt 0.520852 0.329815
vt 0.482553 0.332671
vt 0.520852 0.000167
vt 0.133796 0.998567
vt 0.170557 0.999833
vt 0.095659 0.996717
vt 0.056032 0.919267
vt 0.080932 0.919004
vt 0.038155 0.995943
vt 0.030956 0.672561
vt 0.000167 0.997425
vt 0.057033 0.674377
vt 0.210094 0.996050
vt 0.178499 0.822220
vt 0.163654 0.670362
vt 0.192911 0.940232
vt 0.085234 0.674515
vt 0.469344 0.191327
vt 0.346842 0.000167
vt 0.482219 0.071238
vt 0.346842 0.262507
vt 0.176198 0.941411
vt 0.159839 0.823964
vt 0.398754 0.371183
vt 0.372415 0.262841
vt 0.398754 0.287521
vt 0.372415 0.397260
vt 0.060812 0.838061
vt 0.075740 0.837619
vt 0.446507 0.262841
vt 0.425762 0.397260
vt 0.425762 0.262841
vt 0.446507 0.397260
vt 0.427797 0.437331
vt 0.428199 0.455286
vt 0.275300 0.455286
vt 0.223878 0.191327
vt 0.346508 0.000167
vt 0.346508 0.262507
vt 0.210428 0.071301
vt 0.446105 0.417129
vt 0.447353 0.435046
vt 0.305562 0.435046
vt 0.467587 0.336334
vt 0.446842 0.300239
vt 0.467587 0.300239
vt 0.446842 0.336334
vt 0.399088 0.371183
vt 0.425427 0.262841
vt 0.425427 0.397260
vt 0.399088 0.287521
vt 0.467587 0.262841
vt 0.446842 0.299905
vt 0.446842 0.262841
vt 0.467587 0.299905
vt 0.275300 0.433743
vt 0.305227 0.267110
vt 0.298106 0.436996
vt 0.275300 0.262841
vt 0.063548 0.442518
vt 0.088133 0.440914
vt 0.039294 0.441268
vt 0.160948 0.439500
vt 0.249096 0.483715
vt 0.274966 0.266192
vt 0.274966 0.487519
vt 0.252174 0.262841
vt 0.028953 0.267559
vt 0.039249 0.000167
vt 0.059018 0.265780
vt 0.001455 0.001905
vt 0.145443 0.263873
vt 0.116895 0.263391
vt 0.088277 0.264227
vt 0.175000 0.266014
vt 0.305562 0.320448
vt 0.305562 0.282043
vt 0.338821 0.262841
vt 0.372081 0.282043
vt 0.372081 0.320448
vt 0.338821 0.339651
vt 0.153281 0.002945
vt 0.190994 0.000167
vt 0.114298 0.004200
vt 0.076046 0.002360
vt 0.240602 0.533824
vt 0.210428 0.265177
vt 0.248762 0.262841
vt 0.210428 0.535662
vn -0.9252 0.0686 0.3733
vn 0.0000 1.0000 -0.0000
vn 0.7829 -0.1111 0.6122
vn -0.9248 -0.0739 0.3732
vn 0.1279 -0.0430 -0.9909
vn 0.1010 -0.0546 -0.9934
vn 0.0823 -0.0626 -0.9946
vn 0.1395 -0.0380 -0.9895
vn 0.9273 0.0091 -0.3742
vn -0.5827 -0.0950 0.8071
vn -0.0359 -0.1543 0.9874
vn -0.0224 -0.1551 0.9876
vn -0.7155 -0.0697 0.6952
vn -0.7869 0.0467 -0.6153
vn 0.9634 -0.0121 0.2678
vn 0.9660 -0.0188 0.2577
vn 0.9733 -0.0395 0.2262
vn 0.9582 -0.0000 0.2860
vn -0.1515 -0.2280 0.9618
vn -0.1874 -0.2447 0.9513
vn -0.1361 -0.2207 0.9658
vn -0.2145 -0.2572 0.9423
vn -0.1443 -0.1477 0.9785
vn -0.2107 -0.1555 0.9651
vn -0.1381 -0.1469 0.9795
vn -0.2192 -0.1565 0.9630
vn 0.3512 -0.1192 0.9287
vn -0.0276 -0.1505 0.9882
vn 0.4402 -0.1083 0.8914
vn -0.0398 -0.1511 0.9877
vn -0.9966 0.0000 -0.0824
vn -0.6118 0.0397 -0.7900
vn -0.8989 0.0630 -0.4335
vn -0.0875 0.0000 -0.9962
vn -0.9080 0.0638 -0.4141
vn 0.1333 0.1790 -0.9748
vn 0.0862 0.1741 -0.9810
vn 0.0812 0.1735 -0.9815
vn 0.1373 0.1794 -0.9742
vn 0.9599 0.0229 -0.2793
vn 0.8750 0.0498 -0.4816
vn 0.9947 0.0000 -0.1026
vn 0.8666 0.0518 -0.4963
vn 0.0824 0.0000 -0.9966
vn 0.1034 -0.8850 -0.4540
vn -0.9914 0.0079 -0.1307
vn -0.9922 0.0122 -0.1240
vn -0.9897 0.0000 -0.1429
vn -0.9943 0.0257 -0.1031
vn 0.1117 0.8642 -0.4907
vn -0.0564 -0.7297 0.6814
vn 0.9966 0.0000 0.0824
vn -0.0580 0.7106 0.7012
vn 0.7862 -0.0624 0.6148
vn 0.1375 -0.1716 -0.9755
vn 0.9233 -0.0930 -0.3726
vn -0.1381 0.1479 0.9793
vn -0.7844 -0.0927 -0.6133
vn 0.7859 0.0683 0.6145
vn 0.7859 0.0683 0.6146
vn 0.9185 0.1381 -0.3706
vn -0.9107 0.1885 0.3675
vn 0.1396 -0.0187 -0.9900
vn 0.9209 -0.1173 -0.3716
vn -0.1390 0.0921 0.9860
vn -0.7805 0.1351 -0.6103
vn 0.0000 -1.0000 -0.0000
vn -0.1396 0.0068 0.9902
vn -0.7860 -0.0668 -0.6146
vn 0.7822 0.1189 0.6116
vn -0.9239 -0.0863 0.3728
vn 0.1394 0.0460 -0.9892
usemtl None
s 1
f 1/1/1 3/2/1 4/3/1
f 1/1/1 2/4/1 3/2/1
s 2
f 8/5/2 9/6/2 10/7/2
f 10/7/2 5/8/2 8/5/2
f 5/8/2 6/9/2 8/5/2
f 6/9/2 7/10/2 8/5/2
s 3
f 11/11/3 9/12/3 8/13/3
f 11/11/3 12/14/3 9/12/3
s 4
f 1/1/4 6/15/4 2/4/4
f 1/1/4 7/16/4 6/15/4
s 5
f 5/17/5 13/18/6 14/19/7
f 5/17/5 10/20/8 13/18/6
s 6
f 12/21/9 10/20/9 9/22/9
f 12/21/9 15/23/9 10/20/9
s 7
f 8/24/10 17/25/11 11/26/12
f 8/24/10 16/27/13 17/25/11
s 8
f 2/4/14 5/17/14 18/28/14
f 2/4/14 6/15/14 5/17/14
s 9
f 16/29/15 20/30/16 17/31/17
f 16/29/15 19/32/18 20/30/16
s 10
f 7/16/19 16/27/20 8/24/21
f 7/16/19 21/33/22 16/27/20
s 11
f 11/26/23 22/34/24 1/1/25
f 11/26/23 17/25/26 22/34/24
s 12
f 7/16/27 22/34/28 21/33/29
f 7/16/27 1/1/30 22/34/28
s 13
f 14/35/31 25/36/31 23/37/31
f 14/35/31 24/38/31 25/36/31
s 14
f 10/20/32 26/39/33 13/18/34
f 10/20/32 15/23/35 26/39/33
s 15
f 15/23/36 23/40/37 26/39/38
f 15/23/36 18/28/39 23/40/37
s 16
f 18/28/40 14/19/41 23/40/42
f 18/28/40 5/17/43 14/19/41
s 17
f 25/41/44 28/42/44 27/43/44
f 25/41/44 24/44/44 28/42/44
s 18
f 22/45/45 17/46/45 20/47/45
s 19
f 21/48/46 20/49/47 19/50/48
f 21/48/46 22/51/49 20/49/47
s 20
f 16/52/50 21/53/50 19/54/50
s 21
f 26/55/51 25/56/51 27/57/51
f 26/55/51 23/58/51 25/56/51
s 22
f 13/59/52 27/60/52 28/61/52
f 13/59/52 26/62/52 27/60/52
s 23
f 13/63/53 24/64/53 14/65/53
f 13/63/53 28/66/53 24/64/53
s 24
f 30/67/54 32/68/54 29/69/54
f 30/67/54 31/70/54 32/68/54
s 25
f 18/28/55 33/71/55 34/72/55
f 18/28/55 15/23/55 33/71/55
s 26
f 12/21/56 33/71/56 15/23/56
f 12/21/56 29/73/56 33/71/56
s 27
f 1/1/57 30/74/57 11/26/57
f 1/1/57 4/3/57 30/74/57
s 28
f 2/4/58 34/72/58 3/2/58
f 2/4/58 18/28/58 34/72/58
s 29
f 11/75/59 29/76/60 12/77/59
f 11/75/59 30/78/60 29/76/60
s 30
f 32/79/61 37/80/61 35/81/61
f 32/79/61 36/82/61 37/80/61
s 31
f 3/2/62 39/83/62 4/3/62
f 3/2/62 38/84/62 39/83/62
s 32
f 34/72/63 35/81/63 40/85/63
f 34/72/63 33/71/63 35/81/63
s 33
f 33/71/64 32/79/64 35/81/64
f 33/71/64 29/73/64 32/79/64
s 34
f 4/3/65 31/86/65 30/74/65
f 4/3/65 39/83/65 31/86/65
s 35
f 3/2/66 40/85/66 38/84/66
f 3/2/66 34/72/66 40/85/66
s 36
f 42/87/67 43/88/67 44/89/67
f 44/89/67 41/90/67 42/87/67
f 41/90/67 37/91/67 42/87/67
f 37/91/67 36/92/67 42/87/67
s 37
f 31/86/68 43/93/68 42/94/68
f 31/86/68 39/83/68 43/93/68
s 38
f 40/85/69 44/95/69 38/84/69
f 40/85/69 41/96/69 44/95/69
s 39
f 32/97/70 42/98/70 36/99/70
f 32/97/70 31/100/70 42/98/70
s 40
f 39/83/71 44/95/71 43/93/71
f 39/83/71 38/84/71 44/95/71
s 41
f 35/81/72 41/96/72 40/85/72
f 35/81/72 37/80/72 41/96/72
