# Blender v2.79 (sub 0) OBJ File: ''
# www.blender.org
o Circle_Circle.001
v -0.063403 -0.879870 0.234043
v 0.063402 -0.879870 0.234043
v 0.126805 -0.838984 0.335965
v 0.063402 -0.798099 0.437886
v -0.063402 -0.798099 0.437886
v -0.126805 -0.838984 0.335965
v 0.126805 0.616127 -0.247755
v 0.063402 0.575241 -0.349676
v -0.063403 0.575241 -0.349676
v -0.126805 0.616127 -0.247755
v -0.063402 0.657013 -0.145833
v 0.063402 0.657013 -0.145833
v 0.063402 0.432678 -0.292487
v -0.063403 0.432678 -0.292487
v -0.063402 0.311279 -0.498012
v -0.063402 0.453842 -0.555201
v 0.063402 0.514450 -0.088644
v -0.063402 0.514450 -0.088644
v -0.063402 0.571364 0.150334
v 0.063402 0.571364 0.150334
v -0.063402 0.713927 0.093144
v 0.000000 0.662031 0.516784
v 0.063402 0.713927 0.093144
v 0.063402 0.311279 -0.498012
v 0.000000 0.121307 -0.831148
v 0.063402 0.453842 -0.555201
vt 0.274171 0.811311
vt 0.333041 0.777322
vt 0.391911 0.811311
vt 0.391911 0.879289
vt 0.333041 0.913277
vt 0.274171 0.879289
vt 0.267565 0.809761
vt 0.267565 0.877738
vt 0.208695 0.911727
vt 0.149825 0.877738
vt 0.149824 0.809761
vt 0.208695 0.775772
vt 0.136408 0.757967
vt 0.136409 -0.000164
vt 0.204386 -0.000164
vt 0.204386 0.757967
vt 0.372288 0.352210
vt 0.244355 0.349032
vt 0.235136 0.263664
vt 0.368435 0.269594
vt 0.000205 0.758333
vt 0.000202 0.000203
vt 0.068181 0.000203
vt 0.068183 0.840678
vt 0.000205 0.840678
vt -0.000718 0.840678
vt -0.000720 0.000202
vt 0.067259 0.000202
vt 0.067259 0.758333
vt 0.067259 0.840678
vt 0.069271 0.756783
vt 0.069269 -0.001348
vt 0.137248 -0.001348
vt 0.137249 0.839128
vt 0.069272 0.839128
vt 0.136159 0.000203
vt 0.136160 0.758333
vt 0.136160 0.840678
vt 0.367254 0.671012
vt 0.236680 0.673917
vt 0.236429 0.602821
vt 0.368002 0.605868
vt 0.367254 0.672562
vt 0.368002 0.607419
vt 0.566958 0.641167
vt 0.204136 0.000203
vt 0.204138 0.758333
vt 0.361490 0.754787
vt 0.365704 0.672562
vt 0.565408 0.641167
vt 0.139012 0.919238
vt 0.007319 0.919238
vt 0.007319 0.851260
vt 0.139012 0.851260
vt 0.361491 0.753237
vt 0.225784 0.758315
vt 0.235130 0.673917
vt 0.365704 0.671012
vt 0.369552 0.605868
vt 0.237979 0.602821
vt 0.228884 0.517601
vt 0.365831 0.523270
vt 0.156713 0.994328
vt 0.146724 0.927088
vt 0.378038 0.927088
vt 0.369552 0.607419
vt 0.365831 0.524820
vt 0.568508 0.641167
vt 0.371484 0.415755
vt 0.372288 0.350660
vt 0.574285 0.384532
vt 0.369933 0.418856
vt 0.243040 0.421788
vt 0.242805 0.350582
vt 0.370738 0.353760
vt 0.008869 0.924293
vt 0.136832 0.924293
vt 0.136832 0.992271
vt 0.008869 0.992271
vt 0.365507 0.501068
vt 0.233484 0.506273
vt 0.368435 0.268044
vt 0.365507 0.499518
vt 0.369933 0.417306
vt 0.572735 0.386082
vt 0.392690 0.926084
vt 0.402558 0.993341
vt 0.168427 0.993341
vn 0.0000 -0.9281 0.3723
vn 0.0000 0.9281 -0.3723
vn 0.0000 -0.3723 -0.9281
vn -1.0000 -0.0000 -0.0000
vn -0.8660 -0.1862 -0.4641
vn 0.8660 -0.1862 -0.4641
vn 0.8660 0.1862 0.4641
vn -0.8660 0.1862 0.4641
vn 0.0000 -0.9728 0.2314
vn 0.0000 -0.9728 0.2317
vn -0.0000 -0.9708 0.2400
vn 0.0000 -0.9707 0.2402
vn 0.0000 0.3723 0.9281
vn -0.9859 0.0623 0.1552
vn 0.0000 0.9728 -0.2317
vn 1.0000 -0.0000 0.0000
vn 0.0000 0.9926 0.1216
vn 0.9859 0.0623 0.1552
vn 0.0000 -0.8687 0.4954
vn 0.0000 -0.8610 0.5086
vn 0.0000 0.8610 -0.5086
vn -0.9864 -0.0613 -0.1528
vn 0.9864 -0.0613 -0.1528
vn 0.0000 0.6386 -0.7695
s 1
f 1/1/1 2/2/1 3/3/1
f 1/1/1 3/3/1 4/4/1
f 1/1/1 4/4/1 5/5/1
f 5/5/1 6/6/1 1/1/1
s 2
f 7/7/2 8/8/2 9/9/2
f 7/7/2 9/9/2 10/10/2
f 7/7/2 10/10/2 11/11/2
f 11/11/2 12/12/2 7/7/2
s 3
f 13/13/3 2/14/3 1/15/3
f 1/15/3 14/16/3 13/13/3
s 4
f 15/17/4 14/18/4 9/19/4
f 9/19/4 16/20/4 15/17/4
s 5
f 14/21/5 1/22/5 6/23/5
f 14/21/5 6/23/5 10/24/5
f 10/24/5 9/25/5 14/21/5
s 6
f 7/26/6 3/27/6 2/28/6
f 7/26/6 2/28/6 13/29/6
f 13/29/6 8/30/6 7/26/6
s 7
f 17/31/7 4/32/7 3/33/7
f 17/31/7 3/33/7 7/34/7
f 7/34/7 12/35/7 17/31/7
s 8
f 10/24/8 6/23/8 5/36/8
f 10/24/8 5/36/8 18/37/8
f 18/37/8 11/38/8 10/24/8
s 9
f 19/39/9 18/40/10 17/41/10
f 17/41/10 20/42/11 19/39/9
f 19/43/9 20/44/11 22/45/12
s 10
f 18/37/13 5/36/13 4/46/13
f 4/46/13 17/47/13 18/37/13
s 11
f 21/48/14 19/49/14 22/50/14
s 12
f 23/51/15 12/52/15 11/53/15
f 11/53/15 21/54/15 23/51/15
s 13
f 21/55/4 11/56/4 18/57/4
f 18/57/4 19/58/4 21/55/4
s 14
f 20/59/16 17/60/16 12/61/16
f 12/61/16 23/62/16 20/59/16
s 15
f 23/63/17 21/64/17 22/65/17
s 16
f 20/66/18 23/67/18 22/68/18
s 17
f 24/69/19 15/70/19 25/71/19
s 18
f 24/72/20 13/73/20 14/74/20
f 14/74/20 15/75/20 24/72/20
s 19
f 16/76/21 9/77/21 8/78/21
f 8/78/21 26/79/21 16/76/21
s 20
f 26/80/16 8/81/16 13/73/16
f 13/73/16 24/72/16 26/80/16
s 21
f 15/70/22 16/82/22 25/71/22
s 22
f 26/83/23 24/84/23 25/85/23
s 23
f 16/86/24 26/87/24 25/88/24
