# Blender v2.79 (sub 0) OBJ File: ''
# www.blender.org
mtllib POZO.mtl
o Circle_Circle.001_Circle_Circle.000
v 0.141738 1.088900 0.478867
v 0.141738 1.168880 0.478868
v -0.263404 1.168900 -0.464822
v -0.263404 1.088920 -0.464823
v -0.140221 1.088920 -0.511873
v -0.140221 1.168900 -0.511872
v 0.266047 1.168880 0.433528
v 0.266047 1.088900 0.433527
v 0.104294 1.654620 0.390192
v 0.228322 1.654620 0.344425
v -0.094651 1.654620 -0.428275
v -0.218116 1.654620 -0.381653
v 0.604073 -0.577238 -0.002139
v 0.426629 -0.577238 0.450700
v -0.001759 -0.577238 0.638272
v -0.430148 -0.577238 0.450700
v -0.607592 -0.577238 -0.002139
v -0.430148 -0.577238 -0.454977
v -0.001759 -0.577238 -0.642550
v 0.426629 -0.577238 -0.454977
v 0.501060 0.309842 -0.552734
v 0.426629 0.309842 -0.454977
v -0.001759 0.309842 -0.642550
v 0.015646 0.309842 -0.755458
v 0.566111 0.309842 0.535526
v 0.426629 0.309842 0.450700
v 0.604073 0.309842 -0.002139
v 0.751564 0.309842 0.024254
v -0.748436 0.309842 -0.037502
v -0.607592 0.309842 -0.002139
v -0.430148 0.309842 0.450700
v -0.500980 0.309842 0.530783
v -0.006954 0.309842 0.744542
v -0.001759 0.309842 0.638272
v -0.430148 0.309842 -0.454977
v -0.554372 0.309842 -0.537739
v 0.015646 0.520893 -0.755458
v -0.554372 0.520893 -0.537739
v 0.501060 0.520893 -0.552734
v 0.751564 0.520893 0.024254
v -0.748436 0.520893 -0.037502
v -0.500980 0.520893 0.530783
v -0.006954 0.520893 0.744542
v 0.566111 0.520893 0.535526
v 0.476031 0.500686 0.013104
v 0.317727 0.500686 -0.351519
v -0.003307 0.226238 0.468282
v -0.003307 0.500686 0.468282
v 0.358836 0.500686 0.336196
v 0.358836 0.226238 0.336196
v -0.315502 0.500686 0.333200
v -0.333766 0.512562 -0.531785
v -0.349242 0.500686 -0.342042
v -0.263619 0.505651 -0.464864
v -0.471879 0.500686 -0.025923
v 0.265833 0.505638 0.433487
v 0.141524 0.505638 0.478827
v 0.344585 0.512575 0.526092
v 0.147874 0.512575 0.597839
v 0.010975 0.500686 -0.479628
v 0.010975 0.226238 -0.479628
v -0.349242 0.226238 -0.342042
v -0.471879 0.226238 -0.025923
v -0.315502 0.226238 0.333200
v 0.476031 0.226238 0.013103
v 0.317727 0.226238 -0.351519
v 0.344799 1.367630 0.526133
v -0.333552 1.367620 -0.531744
v -0.140436 0.505651 -0.511913
v -0.138839 0.512562 -0.606239
v -0.138624 1.367620 -0.606197
v 0.148088 1.367630 0.597881
v 0.329744 1.732870 0.484858
v 0.061165 1.748540 -0.044679
v 0.133033 1.732870 0.556606
v -0.062581 1.748540 0.001516
v -0.127065 1.778050 -0.575935
v -0.321993 1.778050 -0.501482
v -0.174971 1.981610 -0.552510
v -0.268650 1.982290 -0.512978
v 0.187220 1.937110 0.546353
v 0.281005 1.936430 0.507049
v -0.398181 1.591030 0.784615
v 0.185637 1.862690 0.543861
v -0.270233 1.907870 -0.515470
v -0.853207 1.636220 -0.273473
v 0.337738 1.657560 -0.775609
v -0.176554 1.907190 -0.555002
v 0.279422 1.862020 0.504557
v 0.794548 1.612380 0.285184
v -0.399565 1.490480 0.780923
v 0.202756 1.838950 0.534108
v -0.252932 1.884080 -0.524911
v -0.854591 1.535670 -0.277164
v 0.336354 1.557010 -0.779300
v -0.194197 1.884080 -0.547345
v 0.793164 1.511830 0.281492
v 0.261963 1.838940 0.512513
vt 0.910802 0.426850
vt 0.929383 0.426850
vt 0.929383 0.665435
vt 0.910802 0.665435
vt 0.929383 0.395828
vt 0.910802 0.395828
vt 0.910802 0.156775
vt 0.929383 0.156775
vt 0.809610 0.158489
vt 0.840302 0.156775
vt 0.840219 0.395829
vt 0.809610 0.397075
vt 0.496186 0.955978
vt 0.495904 0.986689
vt 0.380843 0.986689
vt 0.381148 0.955951
vt 0.790583 0.954904
vt 0.789772 0.985553
vt 0.674805 0.985528
vt 0.675593 0.954904
vt 0.000775 0.087949
vt 0.077538 0.005038
vt 0.186098 0.000775
vt 0.262862 0.077657
vt 0.262862 0.190647
vt 0.186099 0.273558
vt 0.077538 0.277821
vt 0.000775 0.200939
vt 0.873266 0.876150
vt 0.880470 0.848530
vt 0.989098 0.850387
vt 0.995476 0.876150
vt 0.868210 0.000775
vt 0.905392 0.008251
vt 0.902512 0.121204
vt 0.868210 0.127124
vt 0.957652 0.300771
vt 0.930932 0.280176
vt 0.935137 0.167263
vt 0.957652 0.156775
vt 0.142486 0.936279
vt 0.132893 0.959059
vt 0.024465 0.965896
vt 0.000775 0.936279
vt 0.807958 0.970517
vt 0.821095 0.947456
vt 0.929615 0.942258
vt 0.949714 0.970517
vt 0.382785 0.773603
vt 0.411774 0.792873
vt 0.407691 0.905789
vt 0.382785 0.919735
vt 0.940800 0.125427
vt 0.906941 0.117939
vt 0.907324 0.004950
vt 0.940800 0.000775
vt 0.933012 0.972066
vt 0.925297 0.995676
vt 0.816654 0.995204
vt 0.807958 0.972066
vt 0.206859 0.772125
vt 0.000775 0.772125
vt 0.000775 0.663481
vt 0.206859 0.663481
vt 0.622164 0.767707
vt 0.416080 0.767707
vt 0.416080 0.659063
vt 0.622164 0.659063
vt 0.206859 0.661931
vt 0.000775 0.661860
vt 0.000814 0.548870
vt 0.206898 0.548941
vt 0.414531 0.772053
vt 0.208447 0.772053
vt 0.208447 0.663410
vt 0.414531 0.663410
vt 0.631754 0.228447
vt 0.425670 0.228376
vt 0.425709 0.115386
vt 0.631793 0.115457
vt 0.631754 0.113836
vt 0.425670 0.113765
vt 0.425709 0.000775
vt 0.631793 0.000846
vt 0.622164 0.657514
vt 0.416080 0.657514
vt 0.416080 0.548870
vt 0.622164 0.548870
vt 0.414531 0.661860
vt 0.208447 0.661860
vt 0.208447 0.548870
vt 0.414531 0.548870
vt 0.000775 0.822704
vt 0.000775 0.773674
vt 0.142530 0.773674
vt 0.142530 0.822704
vt 0.000775 0.873285
vt 0.000775 0.824254
vt 0.122984 0.824254
vt 0.122984 0.873285
vt 0.752338 0.101047
vt 0.801369 0.101047
vt 0.801369 0.247180
vt 0.752338 0.247180
vt 0.381236 0.898255
vt 0.332205 0.898255
vt 0.332205 0.773603
vt 0.381236 0.773603
vt 0.856989 0.796787
vt 0.807958 0.796787
vt 0.807958 0.652791
vt 0.856989 0.652791
vt 0.541134 0.819282
vt 0.541134 0.868313
vt 0.416080 0.868313
vt 0.416080 0.819282
vt 0.765425 0.814931
vt 0.765425 0.863962
vt 0.623713 0.863962
vt 0.623713 0.814931
vt 0.817630 0.000775
vt 0.866661 0.000775
vt 0.866661 0.127124
vt 0.817630 0.127124
vt 0.633342 0.128915
vt 0.691217 0.101047
vt 0.691217 0.247180
vt 0.633342 0.221263
vt 0.298000 0.834885
vt 0.298000 0.898644
vt 0.208447 0.898644
vt 0.208447 0.834885
vt 0.746823 0.297837
vt 0.808061 0.270725
vt 0.808061 0.397075
vt 0.746823 0.377683
vt 0.727448 0.753957
vt 0.748767 0.813382
vt 0.623713 0.813382
vt 0.648422 0.753957
vt 0.933106 0.892233
vt 0.971184 0.926618
vt 0.905154 0.926618
vt 0.910526 0.892233
vt 0.807876 0.498126
vt 0.746823 0.523276
vt 0.746823 0.398624
vt 0.807876 0.419353
vt 0.292455 0.496195
vt 0.264412 0.482317
vt 0.353965 0.482317
vt 0.323195 0.496196
vt 0.195840 0.494523
vt 0.157185 0.460421
vt 0.224157 0.460421
vt 0.223986 0.491710
vt 0.957538 0.779219
vt 0.923846 0.781299
vt 0.923846 0.716942
vt 0.959367 0.751544
vt 0.229734 0.833336
vt 0.208447 0.773603
vt 0.330656 0.773603
vt 0.306963 0.833336
vt 0.750789 0.216926
vt 0.692766 0.245043
vt 0.692766 0.101047
vt 0.750789 0.125929
vt 0.317928 0.274732
vt 0.407419 0.270725
vt 0.462800 0.326743
vt 0.462702 0.417740
vt 0.408671 0.475410
vt 0.319278 0.480768
vt 0.264412 0.422760
vt 0.264412 0.330413
vt 0.416080 0.933621
vt 0.416080 0.869862
vt 0.493309 0.869862
vt 0.493309 0.933621
vt 0.858538 0.716942
vt 0.922297 0.716942
vt 0.922297 0.796787
vt 0.858538 0.796787
vt 0.462800 0.482317
vt 0.462800 0.546076
vt 0.371803 0.546076
vt 0.371803 0.482317
vt 0.783061 0.865511
vt 0.783061 0.929270
vt 0.704289 0.929270
vt 0.704289 0.865511
vt 0.807958 0.798337
vt 0.871717 0.798337
vt 0.871717 0.890684
vt 0.807958 0.890684
vt 0.606442 0.908863
vt 0.542683 0.908863
vt 0.542683 0.819282
vt 0.606442 0.819282
vt 0.702739 0.865511
vt 0.702739 0.929270
vt 0.623713 0.929270
vt 0.623713 0.865511
vt 0.625932 0.258237
vt 0.427287 0.258237
vt 0.425670 0.229997
vt 0.579753 0.230005
vt 0.702739 0.953355
vt 0.504095 0.953342
vt 0.502496 0.930819
vt 0.656579 0.930819
vt 0.755899 0.248729
vt 0.801369 0.268517
vt 0.659657 0.268517
vt 0.707255 0.248729
vt 0.930932 0.309290
vt 0.966235 0.302320
vt 0.966235 0.366581
vt 0.930932 0.331265
vt 0.548392 0.999225
vt 0.502496 0.979551
vt 0.644251 0.979551
vt 0.596868 0.999225
vt 0.765106 0.930819
vt 0.793870 0.950411
vt 0.704289 0.950411
vt 0.734472 0.930819
vt 0.154858 0.934730
vt 0.000775 0.934705
vt 0.000788 0.904071
vt 0.154872 0.904096
vt 0.614735 0.817733
vt 0.416090 0.817732
vt 0.416080 0.769257
vt 0.614725 0.769257
vt 0.362530 0.954401
vt 0.208447 0.954400
vt 0.210051 0.932483
vt 0.408696 0.932483
vt 0.154858 0.902521
vt 0.000775 0.902521
vt 0.002388 0.874834
vt 0.201033 0.874837
vt 0.362539 0.930934
vt 0.208455 0.930934
vt 0.208447 0.900194
vt 0.362530 0.900194
vt 0.355830 0.547321
vt 0.157185 0.547302
vt 0.157200 0.498658
vt 0.355845 0.498676
vt 0.710925 0.752408
vt 0.640277 0.704319
vt 0.623713 0.652791
vt 0.723500 0.710077
vt 0.806409 0.652791
vt 0.733197 0.042378
vt 0.633342 0.099498
vt 0.650496 0.048466
vt 0.721413 0.000775
vt 0.816081 0.099498
vt 0.958728 0.846981
vt 0.873266 0.846981
vt 0.873266 0.798337
vt 0.958728 0.798337
vt 0.806409 0.755523
vt 0.806388 0.856183
vt 0.775736 0.854731
vt 0.775736 0.753957
vt 0.157185 0.279370
vt 0.203702 0.300534
vt 0.260177 0.377728
vt 0.157185 0.458872
vt 0.214851 0.378855
vt 0.903605 0.940709
vt 0.807958 0.940709
vt 0.807958 0.892233
vt 0.903605 0.892233
vt 0.722742 0.651242
vt 0.644900 0.595665
vt 0.623713 0.548870
vt 0.724280 0.604582
vt 0.805531 0.548870
vt 0.144080 0.773674
vt 0.174754 0.774528
vt 0.174731 0.873045
vt 0.144080 0.872305
vt 0.809425 0.637677
vt 0.809425 0.398624
vt 0.840117 0.400348
vt 0.840033 0.638933
vt 0.777456 0.524825
vt 0.777457 0.543406
vt 0.746823 0.543406
vt 0.746823 0.524825
vt 0.244287 0.491161
vt 0.225706 0.491161
vt 0.225706 0.460421
vt 0.244287 0.460421
vt 0.865473 0.424960
vt 0.841851 0.425133
vt 0.841851 0.157006
vt 0.865475 0.156775
vt 0.264412 0.000775
vt 0.424120 0.001049
vt 0.424054 0.269176
vt 0.264412 0.268559
vt 0.606685 0.539249
vt 0.464349 0.541672
vt 0.464349 0.273487
vt 0.606739 0.270725
vt 0.673256 0.978002
vt 0.527667 0.978002
vt 0.502496 0.961770
vt 0.504553 0.954904
vt 0.664255 0.956427
vt 0.370088 0.978826
vt 0.210444 0.978826
vt 0.208447 0.971933
vt 0.233712 0.955951
vt 0.379294 0.957338
vt 0.890401 0.694635
vt 0.867024 0.694633
vt 0.867024 0.426850
vt 0.890401 0.426851
vt 0.809610 0.132732
vt 0.937906 0.132732
vt 0.963302 0.148518
vt 0.961357 0.155226
vt 0.819006 0.154138
vt 0.867024 0.425299
vt 0.867024 0.156775
vt 0.890401 0.156776
vt 0.890401 0.425300
vt 0.007513 0.547321
vt 0.000775 0.415834
vt 0.010047 0.279370
vt 0.155636 0.279548
vt 0.153102 0.547321
vt 0.173360 0.954916
vt 0.156421 0.930274
vt 0.204897 0.930274
vt 0.187967 0.954914
vt 0.736584 0.270725
vt 0.745273 0.408438
vt 0.739088 0.539409
vt 0.610793 0.539238
vt 0.608288 0.270725
vt 0.188057 0.904071
vt 0.205065 0.928725
vt 0.156421 0.928725
vt 0.173416 0.904073
vt 0.455244 0.265195
vt 0.450841 0.259790
vt 0.474465 0.259790
vt 0.469885 0.265302
vt 0.444699 0.259787
vt 0.449292 0.265302
vt 0.425670 0.265302
vt 0.430093 0.259897
vt 0.750316 0.753958
vt 0.767618 0.753957
vt 0.767618 0.777581
vt 0.750316 0.777582
vt 0.010330 0.967445
vt 0.152747 0.967445
vt 0.154633 0.974157
vt 0.129067 0.989741
vt 0.000775 0.988780
vt 0.909253 0.694975
vt 0.891950 0.694975
vt 0.891951 0.426850
vt 0.909253 0.426850
vt 0.891951 0.156775
vt 0.909253 0.156775
vt 0.909253 0.424962
vt 0.891950 0.424962
vt 0.633343 0.266031
vt 0.633342 0.248729
vt 0.656964 0.248729
vt 0.656965 0.266031
vn -0.9189 -0.0000 0.3945
vn 0.9188 0.0000 -0.3948
vn 0.0000 1.0000 0.0000
vn -0.3378 -0.1947 -0.9209
vn 0.3486 -0.1902 0.9178
vn 0.3485 -0.1902 0.9178
vn 0.0000 -1.0000 -0.0000
vn 0.4011 -0.0000 0.9160
vn -0.4011 -0.0000 0.9160
vn -0.9311 0.0000 -0.3648
vn 0.4011 0.0000 -0.9160
vn 0.9311 0.0000 0.3648
vn -0.9311 0.0000 0.3648
vn -0.4011 0.0000 -0.9160
vn 0.9311 0.0000 -0.3648
vn -0.3568 0.0000 -0.9342
vn 0.3854 0.0000 -0.9228
vn 0.9173 0.0000 -0.3982
vn -0.9323 -0.0000 -0.3617
vn -0.9168 0.0000 0.3992
vn -0.3971 -0.0000 0.9178
vn 0.3427 -0.0000 0.9395
vn 0.9401 0.0000 0.3410
vn -0.0744 0.9967 0.0323
vn -0.3427 0.0000 -0.9395
vn -0.0721 0.9971 -0.0261
vn 0.0314 0.9969 -0.0725
vn 0.0359 0.9972 0.0653
vn 0.0717 0.9970 0.0278
vn -0.0287 0.9973 -0.0670
vn -0.0285 0.9968 -0.0741
vn -0.0258 0.9968 -0.0751
vn -0.0216 0.9973 -0.0701
vn -0.0287 0.9975 -0.0646
vn -0.0199 0.9975 -0.0684
vn -0.0303 0.9969 0.0725
vn 0.0742 0.9967 -0.0323
vn -0.3854 0.0000 0.9228
vn -0.9401 0.0000 -0.3410
vn 0.9168 0.0000 -0.3992
vn 0.9323 0.0000 0.3617
vn -0.9173 -0.0000 0.3982
vn 0.3568 0.0000 0.9342
vn 0.3971 0.0000 -0.9178
vn 0.7619 -0.0002 -0.6476
vn 0.7620 -0.0002 -0.6476
vn 0.7618 -0.0002 -0.6478
vn -0.6901 0.0002 0.7237
vn -0.6903 0.0001 0.7236
vn -0.6902 0.0001 0.7236
vn -0.6900 0.0002 0.7238
vn -0.0335 0.9952 -0.0917
vn 0.0171 0.9972 0.0733
vn 0.0351 0.9951 0.0919
vn 0.0210 0.9983 0.0550
vn 0.3568 -0.0002 0.9342
vn -0.3568 0.0001 -0.9342
vn 0.9999 -0.0003 0.0167
vn 0.9999 -0.0003 0.0169
vn 0.9999 -0.0003 0.0165
vn 0.9999 -0.0004 0.0169
vn -0.9986 0.0003 0.0529
vn -0.9986 0.0003 0.0532
vn -0.9986 0.0002 0.0529
vn -0.3427 0.0002 -0.9395
vn 0.3427 -0.0001 0.9395
vn 0.9660 -0.0016 0.2584
vn 0.9986 -0.0340 0.0402
vn 0.8284 -0.1112 -0.5489
vn 0.5696 -0.6343 -0.5227
vn 0.0272 -0.9640 -0.2647
vn -0.7501 -0.6609 0.0240
vn -0.9732 -0.1145 0.1992
vn -0.6927 -0.0356 0.7203
vn -0.5325 -0.0042 0.8464
vn -0.1996 -0.9647 -0.1720
vn 0.9690 -0.0811 -0.2334
vn 0.6907 -0.0311 -0.7225
vn 0.4743 -0.0028 -0.8804
vn 0.2445 -0.9564 0.1595
vn 0.7656 -0.6414 -0.0497
vn -0.9966 -0.0799 0.0214
vn -0.9595 -0.0428 -0.2785
vn -0.8035 -0.1288 0.5812
vn -0.5399 -0.6458 0.5398
vn -0.0647 -0.9523 0.2982
vn 0.3172 0.5961 -0.7376
vn -0.7452 0.6029 -0.2851
vn -0.2935 0.5586 0.7758
vn 0.7694 0.5500 0.3247
vn -0.3655 0.4062 0.8375
vn -0.0609 0.2475 0.9670
vn -0.7300 0.3255 -0.6009
vn -0.8431 0.4669 -0.2667
vn 0.3876 0.4496 -0.8048
vn 0.0757 0.3044 -0.9495
vn 0.7369 0.2635 0.6226
vn 0.8532 0.4228 0.3054
vn -0.2138 -0.7168 0.6637
vn 0.4892 -0.4346 0.7562
vn 0.3714 -0.0405 0.9276
vn -0.3783 0.0383 -0.9249
vn -0.2211 -0.3461 -0.9118
vn -0.6629 -0.6633 -0.3474
vn 0.1947 -0.6787 -0.7081
vn -0.4965 -0.3634 -0.7883
vn -0.3739 0.0274 -0.9271
vn 0.6431 -0.7028 0.3043
vn 0.3263 -0.9280 -0.1800
vn 0.1930 -0.4006 0.8957
vn -0.3657 -0.9232 0.1181
vn 0.3670 -0.0255 0.9299
usemtl DefaultMaterial.007
s 1
f 1/1/1 2/2/1 3/3/1
f 3/3/1 4/4/1 1/1/1
s 2
f 5/5/2 6/6/2 7/7/2
f 7/7/2 8/8/2 5/5/2
s 3
f 2/9/3 7/10/3 6/11/3
f 6/11/3 3/12/3 2/9/3
s 4
f 9/13/4 10/14/4 7/15/4
f 7/15/4 2/16/4 9/13/4
s 5
f 11/17/5 12/18/6 3/19/6
f 3/19/6 6/20/5 11/17/5
s 6
f 13/21/7 14/22/7 15/23/7
f 13/21/7 15/23/7 16/24/7
f 13/21/7 16/24/7 17/25/7
f 13/21/7 17/25/7 18/26/7
f 13/21/7 18/26/7 19/27/7
f 19/27/7 20/28/7 13/21/7
s 7
f 21/29/7 22/30/7 23/31/7
f 23/31/7 24/32/7 21/29/7
f 25/33/7 26/34/7 27/35/7
f 27/35/7 28/36/7 25/33/7
f 29/37/7 30/38/7 31/39/7
f 31/39/7 32/40/7 29/37/7
f 33/41/7 34/42/7 26/43/7
f 26/43/7 25/44/7 33/41/7
f 24/45/7 23/46/7 35/47/7
f 35/47/7 36/48/7 24/45/7
f 28/49/7 27/50/7 22/51/7
f 22/51/7 21/52/7 28/49/7
f 36/53/7 35/54/7 30/55/7
f 30/55/7 29/56/7 36/53/7
f 32/57/7 31/58/7 34/59/7
f 34/59/7 33/60/7 32/57/7
s 8
f 34/61/8 15/62/8 14/63/8
f 14/63/8 26/64/8 34/61/8
s 9
f 31/65/9 16/66/9 15/67/9
f 15/67/9 34/68/9 31/65/9
s 10
f 35/69/10 18/70/10 17/71/10
f 17/71/10 30/72/10 35/69/10
s 11
f 22/73/11 20/74/11 19/75/11
f 19/75/11 23/76/11 22/73/11
s 12
f 26/77/12 14/78/12 13/79/12
f 13/79/12 27/80/12 26/77/12
s 13
f 30/81/13 17/82/13 16/83/13
f 16/83/13 31/84/13 30/81/13
s 14
f 23/85/14 19/86/14 18/87/14
f 18/87/14 35/88/14 23/85/14
s 15
f 27/89/15 13/90/15 20/91/15
f 20/91/15 22/92/15 27/89/15
s 16
f 37/93/16 24/94/16 36/95/16
f 36/95/16 38/96/16 37/93/16
s 17
f 39/97/17 21/98/17 24/99/17
f 24/99/17 37/100/17 39/97/17
s 18
f 40/101/18 28/102/18 21/103/18
f 21/103/18 39/104/18 40/101/18
s 19
f 38/105/19 36/106/19 29/107/19
f 29/107/19 41/108/19 38/105/19
s 20
f 41/109/20 29/110/20 32/111/20
f 32/111/20 42/112/20 41/109/20
s 21
f 42/113/21 32/114/21 33/115/21
f 33/115/21 43/116/21 42/113/21
s 22
f 43/117/22 33/118/22 25/119/22
f 25/119/22 44/120/22 43/117/22
s 23
f 44/121/23 25/122/23 28/123/23
f 28/123/23 40/124/23 44/121/23
s 24
f 45/125/24 40/126/24 39/127/24
f 39/127/24 46/128/24 45/125/24
s 25
f 47/129/25 48/130/25 49/131/25
f 49/131/25 50/132/25 47/129/25
s 26
f 49/133/26 44/134/26 40/135/26
f 40/135/26 45/136/26 49/133/26
s 27
f 51/137/27 42/138/27 43/139/27
f 43/139/27 48/140/27 51/137/27
s 28
f 52/141/28 38/142/28 53/143/28
f 53/143/28 54/144/28 52/141/28
s 29
f 53/145/29 38/146/29 41/147/29
f 41/147/29 55/148/29 53/145/29
s 30
f 56/149/30 49/150/31 48/151/32
f 48/151/32 57/152/33 56/149/30
f 58/153/34 44/154/34 49/155/31
f 49/155/31 56/156/30 58/153/34
f 57/157/33 48/158/32 43/159/35
f 43/159/35 59/160/35 57/157/33
s 31
f 46/161/36 39/162/36 37/163/36
f 37/163/36 60/164/36 46/161/36
s 32
f 55/165/37 41/166/37 42/167/37
f 42/167/37 51/168/37 55/165/37
s 33
f 61/169/3 62/170/3 63/171/3
f 61/169/3 63/171/3 64/172/3
f 61/169/3 64/172/3 47/173/3
f 61/169/3 47/173/3 50/174/3
f 61/169/3 50/174/3 65/175/3
f 65/175/3 66/176/3 61/169/3
s 34
f 66/177/38 46/178/38 60/179/38
f 60/179/38 61/180/38 66/177/38
s 35
f 50/181/39 49/182/39 45/183/39
f 45/183/39 65/184/39 50/181/39
s 36
f 63/185/40 55/186/40 51/187/40
f 51/187/40 64/188/40 63/185/40
s 37
f 62/189/41 53/190/41 55/191/41
f 55/191/41 63/192/41 62/189/41
s 38
f 65/193/42 45/194/42 46/195/42
f 46/195/42 66/196/42 65/193/42
s 39
f 61/197/43 60/198/43 53/199/43
f 53/199/43 62/200/43 61/197/43
s 40
f 64/201/44 51/202/44 48/203/44
f 48/203/44 47/204/44 64/201/44
s 41
f 67/205/45 58/206/46 56/207/47
f 56/207/47 7/208/46 67/205/45
s 42
f 68/209/48 52/210/49 54/211/50
f 54/211/50 3/212/51 68/209/48
s 43
f 59/213/52 43/214/52 44/215/52
f 44/215/52 58/216/52 59/213/52
s 44
f 69/217/53 60/218/53 37/219/53
f 37/219/53 70/220/53 69/217/53
s 45
f 70/221/54 37/222/54 38/223/54
f 38/223/54 52/224/54 70/221/54
s 46
f 54/225/55 53/226/55 60/227/55
f 60/227/55 69/228/55 54/225/55
s 47
f 3/229/56 54/230/56 69/231/56
f 69/231/56 6/232/56 3/229/56
s 48
f 71/233/57 70/234/57 52/235/57
f 52/235/57 68/236/57 71/233/57
s 49
f 6/237/58 69/238/59 70/239/60
f 70/239/60 71/240/61 6/237/58
s 50
f 2/241/62 57/242/62 59/243/63
f 59/243/63 72/244/64 2/241/62
s 51
f 7/245/65 56/246/65 57/247/65
f 57/247/65 2/248/65 7/245/65
s 52
f 72/249/66 59/250/66 58/251/66
f 58/251/66 67/252/66 72/249/66
s 53
f 73/253/67 67/254/68 7/255/69
f 73/253/67 7/255/69 10/256/70
f 10/256/70 74/257/71 73/253/67
f 9/258/72 2/259/73 72/260/74
f 9/258/72 72/260/74 75/261/75
f 75/261/75 76/262/76 9/258/72
f 75/263/75 72/264/74 67/265/68
f 67/265/68 73/266/67 75/263/75
f 9/267/72 76/268/76 74/269/71
f 74/269/71 10/270/70 9/267/72
s 54
f 6/271/77 71/272/78 77/273/79
f 77/273/79 74/274/80 11/275/81
f 77/273/79 11/275/81 6/271/77
f 77/276/79 71/277/78 68/278/82
f 68/278/82 78/279/83 77/276/79
f 78/280/83 68/281/82 3/282/84
f 78/280/83 3/282/84 12/283/85
f 12/283/85 76/284/86 78/280/83
f 74/285/80 76/286/86 12/287/85
f 12/287/85 11/288/81 74/285/80
s 55
f 5/289/7 8/290/7 1/291/7
f 1/291/7 4/292/7 5/289/7
s 56
f 4/293/16 3/294/16 6/295/16
f 6/295/16 5/296/16 4/293/16
s 57
f 8/297/22 7/298/22 2/299/22
f 2/299/22 1/300/22 8/297/22
s 58
f 79/301/87 80/302/88 81/303/89
f 81/303/89 82/304/90 79/301/87
f 83/305/91 84/306/92 85/307/93
f 85/307/93 86/308/94 83/305/91
f 87/309/95 88/310/96 89/311/97
f 89/311/97 90/312/98 87/309/95
f 91/313/99 75/314/100 92/315/101
f 91/313/99 92/315/101 84/316/92
f 84/316/92 83/317/91 91/313/99
f 86/318/94 85/319/93 93/320/102
f 86/318/94 93/320/102 78/321/103
f 78/321/103 94/322/104 86/318/94
f 86/323/94 94/324/104 91/325/99
f 91/325/99 83/326/91 86/323/94
f 95/327/105 77/328/106 96/329/107
f 95/327/105 96/329/107 88/330/96
f 88/330/96 87/331/95 95/327/105
f 87/332/95 90/333/98 97/334/108
f 97/334/108 95/335/105 87/332/95
f 78/336/103 76/337/109 75/338/100
f 78/336/103 75/338/100 91/339/99
f 91/339/99 94/340/104 78/336/103
f 96/341/107 77/342/106 78/343/103
f 78/343/103 93/344/102 96/341/107
f 73/345/110 74/346/111 77/347/106
f 73/345/110 77/347/106 95/348/105
f 95/348/105 97/349/108 73/345/110
f 92/350/101 75/351/100 73/352/110
f 73/352/110 98/353/112 92/350/101
f 98/354/112 89/355/97 84/356/92
f 84/356/92 92/357/101 98/354/112
f 93/358/102 85/359/93 88/360/96
f 88/360/96 96/361/107 93/358/102
f 81/362/89 84/363/92 89/364/97
f 89/364/97 82/365/90 81/362/89
f 90/366/98 89/367/97 98/368/112
f 90/366/98 98/368/112 73/369/110
f 73/369/110 97/370/108 90/366/98
f 80/371/88 85/372/93 84/373/92
f 84/373/92 81/374/89 80/371/88
f 82/375/90 89/376/97 88/377/96
f 88/377/96 79/378/87 82/375/90
f 79/379/87 88/380/96 85/381/93
f 85/381/93 80/382/88 79/379/87
