# Blender v2.79 (sub 0) OBJ File: 'untitled.blend'
# www.blender.org
o Cube.002_Cube.003
v -5.097023 -1.341538 3.000089
v -5.097023 2.658462 3.000089
v -5.097023 -1.341538 -0.999911
v -5.097023 2.658462 -0.999911
v -1.097023 -1.341538 3.000089
v -1.097023 2.658462 3.000089
v -1.097023 -1.341538 -0.999911
v -1.097023 2.658462 -0.999911
vn -1.0000 0.0000 0.0000
vn 0.0000 0.0000 -1.0000
vn 1.0000 0.0000 0.0000
vn 0.0000 0.0000 1.0000
vn 0.0000 -1.0000 0.0000
vn 0.0000 1.0000 0.0000
s off
f 1//1 2//1 4//1 3//1
f 3//2 4//2 8//2 7//2
f 7//3 8//3 6//3 5//3
f 5//4 6//4 2//4 1//4
f 3//5 7//5 5//5 1//5
f 8//6 4//6 2//6 6//6
