# Blender v2.79 (sub 0) OBJ File: 'CUARTEL.blend'
# www.blender.org
o Plane
v -2.121862 1.175602 -0.945316
v 2.647981 2.037201 -1.138554
v -2.121862 -3.319075 -0.889581
v 2.244130 -2.847297 -0.945316
v 3.208673 2.339552 0.355521
v -2.357033 -3.248621 0.979004
v 3.208673 -3.248621 -0.114937
v 3.208673 2.339552 2.217533
v -2.357033 -3.248621 2.217533
v 3.208673 -3.248621 2.217533
v -2.357033 -3.248621 0.695513
v 3.218604 2.347917 0.047868
v 3.216050 -3.255100 -0.352287
v 3.208673 2.600118 0.086536
v 3.208673 2.600118 0.382495
v -2.651601 -3.248621 0.704902
v -2.651601 -3.248621 1.000861
v 3.208673 -3.511310 -0.376417
v -2.357033 -3.511309 0.704902
v 3.208673 -3.511310 -0.126820
v -2.357033 -3.511309 1.000861
v 3.568444 2.339552 0.086536
v 3.568445 -3.248621 -0.376417
v 3.568444 2.339552 0.382495
v 3.568445 -3.248621 -0.126820
v -2.494610 1.472229 -2.270083
v 2.095419 1.472229 -2.270083
v -2.494609 -3.008395 -2.208064
v 2.095418 -3.008395 -2.270083
v -2.494609 -2.112270 -2.220468
v -2.494610 -1.216144 -2.232872
v -2.494610 -0.320021 -2.245276
v -2.494609 0.576104 -2.257679
v -1.576604 1.472229 -2.270083
v -0.658599 1.472229 -2.270083
v 0.259406 1.472229 -2.270083
v 1.177413 1.472229 -2.270083
v 2.095419 0.576104 -2.270083
v 2.095419 -0.320021 -2.270083
v 2.095418 -1.216146 -2.270083
v 2.095418 -2.112271 -2.270083
v 1.177412 -3.008395 -2.257679
v 0.259406 -3.008395 -2.245275
v -0.658599 -3.008395 -2.232871
v -1.576603 -3.008395 -2.220468
v -1.576603 -2.112270 -2.230392
v -0.658599 -2.112270 -2.240314
v 0.259406 -2.112270 -2.250237
v 1.177412 -2.112271 -2.260160
v -1.576603 -1.216144 -2.240314
v 3.728446 2.562257 0.086536
v 1.177412 -1.216146 -2.262640
v -1.576604 -0.320021 -2.250237
v 3.368674 2.822823 0.086536
v 1.177412 -0.320021 -2.265121
v -1.576603 0.576104 -2.260160
v -0.658599 0.576104 -2.262640
v 0.259406 0.576104 -2.265121
v 1.177413 0.576104 -2.267601
v -2.505731 0.565247 -2.859548
v -2.505731 1.461371 -2.872622
v 1.166291 1.461371 -2.872622
v 2.084296 1.461371 -2.872622
v 2.084296 -2.123128 -2.872622
v 2.084296 -3.019251 -2.872622
v -1.587726 -3.019251 -2.820326
v -2.505731 -3.019251 -2.807251
v -2.505731 -2.123127 -2.820326
v -2.505731 -1.227002 -2.833400
v -2.505731 -0.330878 -2.846475
v -1.587726 1.461371 -2.872622
v -0.669720 1.461371 -2.872622
v 0.248285 1.461371 -2.872622
v 2.084296 0.565246 -2.872622
v 2.084296 -0.330878 -2.872622
v 2.084296 -1.227003 -2.872622
v 1.166290 -3.019251 -2.859548
v 0.248284 -3.019251 -2.846474
v -0.669720 -3.019251 -2.833400
v 1.166291 -2.123128 -2.862163
v -1.587726 -2.123127 -2.830786
v -0.669721 -2.123127 -2.841245
v 0.248284 -2.123127 -2.851704
v 1.166291 -1.227003 -2.864778
v -1.587726 -1.227002 -2.841244
v 1.166291 -0.330878 -2.867392
v -1.587726 -0.330878 -2.851704
v 1.166291 0.565246 -2.870007
v -1.587726 0.565247 -2.862163
v -0.669720 0.565247 -2.864778
v 0.248285 0.565247 -2.867392
v 3.208673 2.600118 2.275313
v 3.568444 2.339552 2.275313
v 3.368674 2.822823 2.275313
v 3.728446 2.562257 2.275313
v 3.389935 -3.761570 -0.376417
v 3.749707 -3.498882 -0.376417
v 3.208673 -3.511310 2.255268
v 3.568445 -3.248621 2.255268
v 3.389935 -3.761570 2.255268
v 3.749707 -3.498882 2.255268
v -2.621569 -3.810350 0.704902
v -2.916138 -3.547662 0.704902
v -2.357033 -3.511309 2.217865
v -2.651601 -3.248621 2.217865
v -2.621569 -3.810350 2.217865
v -2.916138 -3.547662 2.217865
v 3.208673 -0.009703 2.217533
v 3.208673 -1.010343 2.217533
v 3.208673 -0.009703 0.201079
v 3.208673 -1.010343 0.086766
v -1.687997 -2.221009 -1.729840
v 1.323243 -2.221009 -1.770527
v 1.825787 1.368667 -1.770527
v -1.687998 0.718459 -1.770527
v 1.741161 -2.478196 -1.288880
v -2.199918 0.831191 -1.288880
v -1.904931 -2.896688 -1.242098
v 1.915336 1.344714 -1.288880
v 3.474808 -0.009703 0.201079
v 3.474808 -1.010343 0.132599
v 3.474808 -0.009703 2.217533
v 3.474808 -1.010343 2.217533
v 3.212440 2.341321 -0.506672
v 3.196256 2.333118 -0.604987
v -2.351455 -3.233290 -0.604804
v -2.353020 -3.242878 -0.506795
v 3.213643 -3.247982 -0.506905
v 3.196605 -3.235190 -0.605076
v 3.384242 2.341357 -0.416874
v 3.368058 2.333153 -0.515190
v 3.385446 -3.247947 -0.417107
v 3.368407 -3.235155 -0.515278
v 3.213451 -3.434244 -0.410508
v 3.196414 -3.421452 -0.508679
v -2.351647 -3.419552 -0.508407
v -2.353212 -3.429141 -0.410399
v -2.473162 -3.233321 -0.477310
v -2.474727 -3.242909 -0.379302
v 3.212148 2.567047 -0.390030
v 3.195964 2.558844 -0.488346
v 3.155748 2.259316 1.284269
v -2.251182 -3.169440 1.319123
v 3.155748 -3.169441 1.055751
v 3.155748 -0.022920 1.209252
v 3.155748 -0.995014 1.153725
v -1.574709 -2.110315 -1.947810
v -0.656705 -2.110315 -1.957733
v 0.261300 -2.110315 -1.967656
v 1.179306 -2.110316 -1.977578
v -1.574709 0.578060 -1.977578
v -0.656705 0.578060 -1.980059
v 0.261300 0.578060 -1.982540
v 1.179307 0.578059 -1.985020
v -1.574709 -1.214189 -1.957733
v 1.179306 -1.214190 -1.980059
v -1.574710 -0.318065 -1.967656
v 1.179306 -0.318065 -1.982540
v -3.059579 1.853111 2.184243
v -1.284083 3.635774 2.217533
v -3.059579 3.635774 2.217533
v -1.284083 3.388369 1.036468
v -3.059579 1.853111 1.036468
v -3.059579 3.713517 1.036468
v -1.544570 4.418358 -2.514774
v -1.084294 2.696638 -2.120707
v -2.799092 2.234504 -2.120707
v -3.259368 3.956224 -2.120707
v -1.260086 4.664479 -3.664935
v -0.591060 2.161900 -3.664935
v -3.083576 1.490173 -3.664935
v -3.752603 3.992751 -3.664935
v -1.126281 4.163963 -3.664935
v -0.992475 3.663447 -3.664935
v -0.858670 3.162931 -3.664935
v -0.724865 2.662416 -3.664935
v -1.089563 2.027555 -3.664935
v -1.588066 1.893209 -3.664935
v -2.086570 1.758864 -3.664935
v -2.585073 1.624518 -3.664935
v -3.217382 1.990689 -3.664935
v -3.351187 2.491204 -3.664935
v -3.484993 2.991720 -3.664935
v -3.618798 3.492236 -3.664935
v -3.254100 4.127097 -3.664935
v -2.755596 4.261442 -3.664935
v -2.257092 4.395788 -3.664935
v -1.758589 4.530133 -3.664935
v -1.223368 2.528071 -3.664935
v -1.357173 3.028586 -3.664935
v -1.490979 3.529102 -3.664935
v -1.624784 4.029618 -3.664935
v -1.721871 2.393725 -3.664935
v -2.123287 3.895273 -3.664935
v -2.220375 2.259379 -3.664935
v -2.621791 3.760927 -3.664935
v -2.718878 2.125034 -3.664935
v -2.852683 2.625550 -3.664935
v -2.986489 3.126065 -3.664935
v -3.120294 3.626581 -3.664935
v -0.724865 2.662416 -4.236602
v -0.591060 2.161900 -4.236602
v -2.585073 1.624518 -4.236602
v -3.083576 1.490173 -4.236602
v -3.618798 3.492236 -4.236602
v -3.752603 3.992751 -4.236602
v -1.758589 4.530133 -4.236602
v -1.260086 4.664479 -4.236602
v -1.126281 4.163963 -4.236602
v -0.992475 3.663447 -4.236602
v -0.858670 3.162931 -4.236602
v -1.089563 2.027555 -4.236602
v -1.588066 1.893209 -4.236602
v -2.086570 1.758864 -4.236602
v -3.217382 1.990689 -4.236602
v -3.351187 2.491204 -4.236602
v -3.484993 2.991720 -4.236602
v -3.254100 4.127097 -4.236602
v -2.755596 4.261442 -4.236602
v -2.257092 4.395788 -4.236602
v -1.624784 4.029618 -4.236602
v -1.223368 2.528071 -4.236602
v -1.357173 3.028586 -4.236602
v -1.490979 3.529102 -4.236602
v -2.123287 3.895273 -4.236602
v -1.721871 2.393725 -4.236602
v -2.621791 3.760927 -4.236602
v -2.220375 2.259379 -4.236602
v -3.120294 3.626581 -4.236602
v -2.718878 2.125034 -4.236602
v -2.852683 2.625550 -4.236602
v -2.986489 3.126065 -4.236602
v -1.284084 2.339552 0.252505
v -1.284083 2.600118 0.289347
v -1.284083 2.600118 -0.006611
v -1.284083 2.306810 -0.013722
v -1.284083 2.559817 -0.390226
v -1.284084 2.339552 2.217533
v -1.284084 2.334090 -0.506868
v -1.284083 2.556420 -0.488400
v -1.284083 2.330694 -0.605042
v -2.357032 1.853111 2.217533
v -1.284083 2.276139 1.036468
v -2.251182 1.853112 1.229527
v -2.353471 1.853111 -0.506904
v -1.284083 1.853111 -0.833682
v -2.257076 1.853111 -0.745639
v -1.284083 2.259316 1.233369
v -2.352203 1.853111 -0.605033
v -2.357032 1.853111 0.293285
v -2.277054 1.853111 1.036468
v -2.475179 1.853111 -0.379410
v -2.473911 1.853112 -0.477539
v -2.357032 1.853112 0.029547
v -2.651601 1.853111 0.035016
v -2.651601 1.853111 0.330974
vn -0.0019 -1.0000 -0.0095
vn -0.0055 0.9998 0.0198
vn 0.0391 -0.8812 -0.4712
vn 0.9985 0.0009 -0.0545
vn -0.0318 -0.0357 -0.9989
vn 0.0737 0.0827 0.9938
vn 0.0005 0.9965 -0.0834
vn -0.7490 0.6626 0.0000
vn 0.0168 0.0839 -0.9963
vn -0.8081 -0.0034 -0.5890
vn -0.8121 0.5835 0.0000
vn -0.0000 1.0000 0.0000
vn -0.0744 -0.1027 0.9919
vn 0.9999 0.0003 -0.0121
vn -0.0698 0.0955 -0.9930
vn 0.0997 0.1310 0.9864
vn -0.0000 -1.0000 0.0000
vn 0.1122 0.1549 -0.9815
vn -0.1876 0.0306 -0.9818
vn 0.9832 -0.0159 0.1817
vn 0.0208 0.0769 -0.9968
vn -0.0000 0.0000 -1.0000
vn 0.5012 -0.0353 -0.8646
vn 0.0330 -0.0452 0.9984
vn 0.1957 0.0186 0.9805
vn 0.0115 -0.5276 0.8494
vn 0.9998 -0.0001 -0.0185
vn -0.0595 0.7415 0.6683
vn 0.6770 -0.0422 0.7348
vn -0.5185 0.0118 0.8550
vn -0.0001 0.9998 -0.0181
vn -0.0095 -0.0014 -1.0000
vn -0.9998 0.0003 0.0185
vn -0.0041 -0.0014 -1.0000
vn -0.9998 0.0002 0.0185
vn -0.0122 -0.0097 -0.9999
vn -0.0001 0.9998 -0.0180
vn -0.0122 -0.0042 -0.9999
vn -0.0095 -0.0125 -0.9999
vn 0.0000 0.0000 1.0000
vn -0.9998 0.0001 0.0185
vn -0.5866 -0.8099 0.0000
vn -0.0041 -0.0125 -0.9999
vn 1.0000 -0.0001 -0.0067
vn 0.0003 -0.9998 0.0180
vn -0.0014 -0.0097 -1.0000
vn 0.9998 -0.0002 -0.0185
vn -0.0014 -0.0042 -1.0000
vn -0.0014 -0.0015 -1.0000
vn -0.0128 -0.0015 -0.9999
vn -0.0071 -0.0015 -1.0000
vn -0.0128 -0.0131 -0.9998
vn -0.0128 -0.0073 -0.9999
vn -0.0071 -0.0131 -0.9999
vn -0.0014 -0.0131 -0.9999
vn -0.0014 -0.0073 -1.0000
vn 0.0003 -0.9998 0.0181
vn -0.0002 0.9998 -0.0180
vn -0.0002 0.9998 -0.0181
vn 0.0000 0.9998 -0.0180
vn 0.0001 -0.9998 0.0180
vn 0.9998 0.0000 -0.0185
vn 0.0002 -0.9998 0.0181
vn 0.8099 0.5866 0.0000
vn -0.8099 -0.5866 0.0000
vn 0.5897 -0.8076 0.0000
vn -0.5897 0.8076 0.0000
vn -0.6656 -0.7463 0.0000
vn 0.6656 0.7463 0.0000
vn 0.7490 -0.6626 0.0000
vn 0.8121 -0.5835 0.0000
vn 0.5866 0.8099 0.0000
vn 0.9985 -0.0027 0.0544
vn 1.0000 -0.0000 0.0000
vn -0.0226 0.9997 0.0000
vn -0.0018 -0.9971 -0.0767
vn -0.7864 -0.0429 -0.6162
vn 0.8722 -0.0796 -0.4827
vn -0.1490 0.9766 -0.1553
vn 0.0359 -0.7164 -0.6968
vn 0.0621 -0.6464 -0.7605
vn -0.0943 0.4872 -0.8682
vn 0.3811 -0.0458 -0.9234
vn -0.9792 -0.0376 -0.1996
vn -0.0539 -0.1034 0.9932
vn -0.0429 -0.0704 0.9966
vn -0.0264 -0.9997 0.0000
vn -0.0002 0.4591 -0.8884
vn 0.7145 -0.6671 -0.2109
vn 0.4210 -0.4172 -0.8054
vn 0.9860 0.0001 -0.1667
vn 0.4632 0.0000 -0.8862
vn -0.4632 -0.0001 0.8862
vn 0.6813 0.3359 0.6504
vn -0.0006 -0.9936 -0.1133
vn -0.4210 0.4172 0.8054
vn 0.0004 0.4596 0.8881
vn -0.0002 -0.4596 -0.8881
vn -0.9999 -0.0001 -0.0145
vn 0.7722 0.6100 -0.1780
vn 0.7233 0.0001 0.6905
vn -0.4210 -0.4168 0.8056
vn -0.6813 -0.3359 -0.6504
vn 0.4210 0.4168 -0.8056
vn -0.8407 -0.5375 -0.0660
vn 0.0128 -0.9945 0.1038
vn -0.0014 0.9965 0.0837
vn 0.9989 0.0011 -0.0475
vn 0.9989 -0.0032 0.0474
vn -0.0068 -0.0069 -1.0000
vn 0.0000 -1.0000 0.0069
vn -0.0001 1.0000 -0.0069
vn -1.0000 0.0000 0.0067
vn -0.0102 -0.0040 0.9999
vn 0.0910 0.9933 -0.0713
vn -1.0000 0.0000 0.0000
vn -0.0174 0.9821 0.1875
vn -0.9916 -0.1274 -0.0221
vn -0.0171 -0.9559 -0.2931
vn 0.9320 0.2715 0.2399
vn -0.9661 -0.2583 0.0000
vn -0.2478 0.9613 0.1200
vn 0.2401 -0.8910 0.3852
vn -0.9247 -0.2472 0.2895
vn 0.9661 0.2583 0.0000
vn 0.2602 -0.9656 0.0000
vn -0.2602 0.9656 0.0000
vn -0.0011 0.9983 -0.0588
vn -0.9938 -0.0010 -0.1116
vn -1.0000 -0.0003 -0.0044
vn -0.9866 0.0119 0.1629
vn -0.0624 0.5462 -0.8353
vn -0.7233 -0.0001 -0.6905
vn 0.9932 0.1116 0.0320
vn 0.0007 -0.4591 0.8884
vn -0.0250 -0.1298 -0.9912
vn -0.0217 -0.1215 0.9924
s off
f 127//1 128//1 13//1 11//1
f 124//2 239//2 236//2 12//2
f 129//3 126//3 3//3 4//3
f 142//4 8//4 108//4 145//4
f 19//5 16//5 11//5
f 21//6 6//6 17//6
f 142//7 248//7 238//7 8//7
f 16//8 103//8 107//8 105//8 17//8
f 12//9 236//9 235//9 14//9
f 126//10 249//10 247//10 1//10 3//10
f 14//11 15//11 92//11 94//11 54//11
f 14//12 235//12 234//12 15//12
f 5//13 24//13 15//13
f 128//14 124//14 12//14 13//14
f 13//15 23//15 18//15
f 6//16 250//16 256//16 17//16
f 19//17 18//17 20//17 21//17
f 12//18 14//18 22//18
f 11//19 13//19 18//19 19//19
f 23//20 22//20 24//20 120//20 121//20 25//20
f 13//21 12//21 22//21 23//21
f 18//22 23//22 97//22 96//22
f 125//23 129//23 4//23 2//23
f 25//24 7//24 20//24
f 6//25 21//25 20//25 7//25
f 113//26 112//26 28//26 45//26 44//26 43//26 42//26 29//26
f 36//27 58//27 91//27 73//27
f 115//28 114//28 27//28 37//28 36//28 35//28 34//28 26//28
f 114//29 113//29 29//29 41//29 40//29 39//29 38//29 27//29
f 112//30 115//30 26//30 33//30 32//30 31//30 30//30 28//30
f 32//31 53//31 87//31 70//31
f 49//32 52//32 40//32 41//32
f 28//33 30//33 68//33 67//33
f 55//34 59//34 38//34 39//34
f 57//35 35//35 72//35 90//35
f 45//36 46//36 47//36 44//36
f 55//37 39//37 75//37 86//37
f 43//38 48//38 49//38 42//38
f 30//39 31//39 50//39 46//39
f 92//40 93//40 95//40 94//40
f 42//41 49//41 80//41 77//41
f 15//42 24//42 93//42 92//42
f 32//43 33//43 56//43 53//43
f 22//22 14//22 54//22 51//22
f 50//44 53//44 157//44 155//44
f 29//45 42//45 77//45 65//45
f 56//46 34//46 35//46 57//46
f 34//47 56//47 89//47 71//47
f 58//48 36//48 37//48 59//48
f 88//49 62//49 63//49 74//49
f 77//50 80//50 64//50 65//50
f 84//51 86//51 75//51 76//51
f 67//52 68//52 81//52 66//52
f 79//53 82//53 83//53 78//53
f 69//54 70//54 87//54 85//54
f 60//55 61//55 71//55 89//55
f 90//56 72//56 73//56 91//56
f 43//57 44//57 79//57 78//57
f 59//41 37//41 62//41 88//41
f 31//33 32//33 70//33 69//33
f 49//58 41//58 64//58 80//58
f 30//59 46//59 81//59 68//59
f 53//47 50//47 85//47 87//47
f 26//60 34//60 71//60 61//60
f 38//61 59//61 88//61 74//61
f 56//61 33//61 60//61 89//61
f 33//33 26//33 61//33 60//33
f 47//59 48//59 83//59 82//59
f 35//60 36//60 73//60 72//60
f 37//60 27//60 63//60 62//60
f 52//41 55//41 86//41 84//41
f 58//61 57//61 90//61 91//61
f 41//62 29//62 65//62 64//62
f 40//61 52//61 84//61 76//61
f 27//62 38//62 74//62 63//62
f 45//57 28//57 67//57 66//57
f 50//63 31//63 69//63 85//63
f 46//47 45//47 66//47 81//47
f 39//62 40//62 76//62 75//62
f 44//35 47//35 82//35 79//35
f 48//27 43//27 78//27 83//27
f 25//64 99//64 101//64 97//64 23//64
f 20//65 18//65 96//65 100//65 98//65
f 99//40 98//40 100//40 101//40
f 97//66 101//66 100//66 96//66
f 25//67 20//67 98//67 99//67
f 16//22 19//22 102//22 103//22
f 103//68 102//68 106//68 107//68
f 104//40 105//40 107//40 106//40
f 21//69 17//69 105//69 104//69
f 21//70 104//70 106//70 102//70 19//70
f 24//71 22//71 51//71 95//71 93//71
f 95//72 51//72 54//72 94//72
f 110//73 5//73 142//73 145//73
f 121//74 120//74 122//74 123//74
f 110//75 145//75 108//75 122//75 120//75
f 143//76 144//76 10//76 9//76
f 162//74 160//74 238//74 248//74 243//74
f 118//77 117//77 115//77 112//77
f 119//78 116//78 113//78 114//78
f 117//79 119//79 114//79 115//79
f 116//80 118//80 112//80 113//80
f 4//81 3//81 118//81 116//81
f 1//82 2//82 119//82 117//82
f 2//83 4//83 116//83 119//83
f 3//84 1//84 117//84 118//84
f 121//85 111//85 7//85 25//85
f 24//86 5//86 110//86 120//86
f 109//87 146//87 111//87 121//87 123//87
f 108//40 109//40 123//40 122//40
f 125//88 241//88 240//88 141//88
f 134//89 135//89 133//89 132//89
f 133//90 135//90 129//90
f 130//91 132//91 133//91 131//91
f 129//92 125//92 131//92 133//92
f 124//93 128//93 132//93 130//93
f 127//94 139//94 137//94
f 134//95 137//95 136//95 135//95
f 134//96 132//96 128//96
f 128//97 127//97 137//97 134//97
f 126//98 129//98 135//98 136//98
f 139//99 252//99 253//99 138//99
f 141//100 140//100 130//100 131//100
f 127//101 245//101 252//101 139//101
f 140//102 124//102 130//102
f 136//103 138//103 126//103
f 131//104 125//104 141//104
f 137//105 139//105 138//105 136//105
f 6//106 7//106 144//106 143//106
f 5//107 233//107 243//107 248//107 142//107
f 109//108 10//108 144//108 146//108
f 111//109 146//109 144//109 7//109
f 148//110 147//110 155//110 157//110 151//110 152//110 153//110 154//110 158//110 156//110 150//110 149//110
f 57//111 58//111 153//111 152//111
f 47//112 46//112 147//112 148//112
f 58//111 59//111 154//111 153//111
f 48//112 47//112 148//112 149//112
f 55//113 52//113 156//113 158//113
f 52//113 49//113 150//113 156//113
f 59//113 55//113 158//113 154//113
f 56//111 57//111 152//111 151//111
f 49//112 48//112 149//112 150//112
f 46//44 50//44 155//44 147//44
f 53//44 56//44 151//44 157//44
f 159//114 242//114 238//114 160//114 161//114
f 161//115 160//115 162//115 164//115
f 159//116 161//116 164//116 163//116
f 162//117 165//117 168//117 164//117
f 163//118 164//118 168//118 167//118
f 163//119 167//119 166//119 246//119 247//119 249//119 253//119 252//119 245//119 254//119 255//119 256//119 250//119 251//119
f 165//120 166//120 170//120 176//120 175//120 174//120 173//120 169//120
f 192//121 188//121 207//121 221//121
f 168//122 165//122 169//122 188//122 187//122 186//122 185//122 172//122
f 166//123 167//123 171//123 180//123 179//123 178//123 177//123 170//123
f 167//124 168//124 172//124 184//124 183//124 182//124 181//124 171//124
f 174//125 175//125 211//125 210//125
f 192//22 194//22 187//22 188//22
f 200//126 184//126 205//126 229//126
f 196//22 200//22 185//22 186//22
f 186//127 187//127 220//127 219//127
f 176//22 189//22 190//22 175//22
f 183//127 199//127 232//127 217//127
f 174//22 191//22 192//22 173//22
f 177//22 178//22 193//22 189//22
f 179//121 195//121 228//121 214//121
f 179//22 180//22 197//22 195//22
f 190//22 189//22 193//22 195//22 197//22 198//22 199//22 200//22 196//22 194//22 192//22 191//22
f 169//125 173//125 209//125 208//125
f 197//22 181//22 182//22 198//22
f 198//126 182//126 216//126 231//126
f 199//22 183//22 184//22 200//22
f 229//22 205//22 206//22 218//22
f 209//22 221//22 207//22 208//22
f 225//22 227//22 219//22 220//22
f 202//22 212//22 222//22 201//22
f 211//22 223//22 224//22 210//22
f 213//22 214//22 228//22 226//22
f 203//22 204//22 215//22 230//22
f 231//22 216//22 217//22 232//22
f 177//121 189//121 222//121 212//121
f 195//127 193//127 226//127 228//127
f 170//126 177//126 212//126 202//126
f 185//125 200//125 229//125 218//125
f 197//125 180//125 203//125 230//125
f 176//125 170//125 202//125 201//125
f 190//121 191//121 224//121 223//121
f 178//126 179//126 214//126 213//126
f 180//126 171//126 204//126 203//126
f 194//126 196//126 227//126 225//126
f 199//125 198//125 231//125 232//125
f 184//121 172//121 206//121 205//121
f 187//125 194//125 225//125 220//125
f 171//121 181//121 215//121 204//121
f 188//127 169//127 208//127 207//127
f 193//125 178//125 213//125 226//125
f 189//127 176//127 201//127 222//127
f 182//121 183//121 217//121 216//121
f 175//126 190//126 223//126 211//126
f 191//127 174//127 210//127 224//127
f 181//127 197//127 230//127 215//127
f 172//127 185//127 218//127 206//127
f 173//126 192//126 221//126 209//126
f 196//121 186//121 219//121 227//121
f 240//128 237//128 140//128 141//128
f 242//129 244//129 143//129 9//129
f 254//130 245//130 127//130 11//130
f 256//116 255//116 16//116 17//116
f 244//131 251//131 250//131 6//131 143//131
f 247//132 246//132 241//132 125//132 2//132 1//132
f 253//133 249//133 126//133 138//133
f 243//134 233//134 234//134 235//134 236//134 239//134 237//134 240//134 241//134 246//134 166//134 165//134 162//134
f 237//135 239//135 124//135 140//135
f 255//136 254//136 11//136 16//136
f 234//137 233//137 5//137 15//137
f 251//17 244//17 242//17 159//17 163//17
f 238//40 242//40 9//40 10//40 109//40 108//40 8//40
l 11 6
