# Blender v2.79 (sub 0) OBJ File: 'Espada.blend'
# www.blender.org
mtllib Espada.mtl
o Cube_Cube.001
v 0.032856 0.000431 2.000000
v 0.032856 0.000431 -0.000000
v 0.247891 0.000431 2.000000
v 0.247891 0.000431 -0.000000
v 0.140373 0.000431 -0.201480
v 0.140373 0.022337 2.000000
v 0.140373 0.022337 -0.000000
v 0.086614 0.022337 -0.000000
v 0.194132 0.022337 2.000000
v 0.086614 0.022337 2.000000
v 0.194132 0.022337 -0.000000
v 0.140373 -0.021474 -0.000000
v 0.140373 -0.021474 2.000000
v 0.194132 -0.021474 -0.000000
v 0.086614 -0.021474 2.000000
v 0.086614 -0.021474 -0.000000
v 0.194132 -0.021474 2.000000
v 0.175132 0.022337 2.047743
v 0.199751 0.000431 2.047743
v 0.140373 0.022337 2.047743
v 0.105614 0.022337 2.047743
v 0.194132 -0.021474 2.047743
v 0.079527 0.000431 2.047743
v 0.140373 -0.021474 2.047743
v 0.086614 -0.021474 2.047743
v 0.300508 0.022337 2.000000
v 0.354267 0.000431 2.000000
v 0.300508 -0.021474 2.000000
v 0.300508 0.022337 2.047743
v 0.354267 0.000431 2.047743
v 0.300508 -0.021474 2.047743
v -0.080778 0.000431 2.000000
v -0.027019 0.022337 2.000000
v -0.027019 -0.021474 2.000000
v -0.080778 0.000431 2.047743
v -0.027019 0.022337 2.047743
v -0.027019 -0.021474 2.047743
v 0.175132 0.022337 2.340551
v 0.190871 0.000431 2.340551
v 0.140373 0.022337 2.340551
v 0.105614 0.022337 2.340551
v 0.175093 -0.021474 2.340551
v 0.084448 0.000431 2.340551
v 0.140373 -0.021474 2.340551
v 0.103218 -0.021474 2.340551
vn -0.3774 -0.9261 0.0000
vn 0.0000 -0.9870 -0.1610
vn 0.0000 -1.0000 0.0000
vn 0.3774 0.9261 0.0000
vn 0.0000 1.0000 0.0000
vn 0.0000 0.9870 -0.1610
vn -0.3774 0.9261 0.0000
vn 0.3774 -0.9261 0.0000
vn 0.0000 0.0000 -1.0000
vn 0.0000 0.0000 1.0000
vn 0.8977 -0.4384 0.0428
vn -0.6799 0.7333 0.0057
vn 0.7354 0.6775 0.0112
vn -0.8608 -0.5080 0.0316
usemtl None
s off
f 16//1 15//1 1//1 2//1
f 2//2 5//2 4//2 14//2 12//2 16//2
f 17//3 22//3 24//3 13//3
f 9//4 3//4 4//4 11//4
f 7//5 8//5 10//5 6//5
f 4//6 5//6 2//6 8//6 7//6 11//6
f 8//7 2//7 1//7 10//7
f 6//5 9//5 11//5 7//5
f 13//3 12//3 14//3 17//3
f 14//8 4//8 3//8 17//8
f 16//3 12//3 13//3 15//3
f 22//3 42//3 44//3 24//3
f 10//5 21//5 20//5 6//5
f 9//9 26//9 27//9 3//9
f 13//3 24//3 25//3 15//3
f 6//5 20//5 18//5 9//5
f 21//10 36//10 35//10 23//10
f 25//3 37//3 34//3 15//3
f 22//10 31//10 30//10 19//10
f 26//4 29//4 30//4 27//4
f 27//8 30//8 31//8 28//8
f 18//5 29//5 26//5 9//5
f 19//10 30//10 29//10 18//10
f 17//3 28//3 31//3 22//3
f 3//9 27//9 28//9 17//9
f 34//1 37//1 35//1 32//1
f 32//7 35//7 36//7 33//7
f 10//5 33//5 36//5 21//5
f 1//9 32//9 33//9 10//9
f 15//9 34//9 32//9 1//9
f 23//10 35//10 37//10 25//10
f 39//10 38//10 40//10 41//10 43//10 45//10 44//10 42//10
f 19//11 39//11 42//11 22//11
f 20//5 40//5 38//5 18//5
f 24//3 44//3 45//3 25//3
f 23//12 43//12 41//12 21//12
f 21//5 41//5 40//5 20//5
f 18//13 38//13 39//13 19//13
f 25//14 45//14 43//14 23//14
