# Blender v2.79 (sub 0) OBJ File: ''
# www.blender.org
o FLECHA_Cube_Cube.000
v -0.005846 0.182831 -1.148098
v -0.005846 0.178956 -1.194190
v -0.005846 -0.430800 -1.188707
v -0.005846 -0.426926 -1.142615
v 0.012499 0.178956 -1.194190
v 0.012499 -0.430800 -1.188707
v 0.012499 0.182831 -1.148098
v 0.012499 -0.426926 -1.142615
v -0.004798 0.150687 -1.050020
v -0.004798 0.274473 -1.166821
v -0.104798 0.140314 -1.250051
v 0.095202 0.140314 -1.250051
vt 0.925232 0.995132
vt 0.846896 0.995984
vt 0.846896 0.189529
vt 0.925232 0.188677
vt 0.962616 0.188677
vt 1.000000 0.188677
vt 1.000000 0.990191
vt 0.962616 0.990191
vt 0.846895 0.995984
vt 0.768559 0.995132
vt 0.768559 0.188677
vt 0.846896 0.189529
vt 0.925232 0.188677
vt 0.962616 0.188677
vt 0.962616 1.000000
vt 0.925232 1.000000
vt 0.743087 0.029721
vt 0.743087 0.000000
vt 0.780471 0.000000
vt 0.780471 0.029721
vt 0.743087 0.059425
vt 0.743087 0.029721
vt 0.780471 0.029721
vt 0.780471 0.059425
vt 0.375072 0.365139
vt 0.586154 0.188677
vt 0.768559 0.365139
vt 0.000000 0.132273
vt 0.375072 0.000000
vt 0.375072 0.190665
vt 0.743086 0.000000
vt 0.743087 0.188677
vt 0.375072 0.050991
vt 0.352920 0.190665
vt 0.352920 0.339825
vt 0.000000 0.265184
vn -1.0000 0.0000 0.0000
vn 0.0000 -0.0090 -1.0000
vn 1.0000 0.0000 0.0000
vn 0.0000 0.0090 1.0000
vn 0.0000 0.9965 -0.0838
vn 0.0000 -0.9965 0.0838
vn -0.8364 0.3761 0.3986
vn 0.0000 0.5272 -0.8498
vn 0.8364 0.3761 0.3986
vn 0.0000 -0.9987 0.0518
s 1
f 1/1/1 2/2/1 3/3/1 4/4/1
f 2/5/2 5/6/2 6/7/2 3/8/2
f 5/9/3 7/10/3 8/11/3 6/12/3
f 7/13/4 1/14/4 4/15/4 8/16/4
f 2/17/5 1/18/5 7/19/5 5/20/5
f 6/21/6 8/22/6 4/23/6 3/24/6
f 9/25/7 10/26/7 11/27/7
f 11/28/8 10/29/8 12/30/8
f 12/31/9 10/32/9 9/33/9
f 9/34/10 11/35/10 12/36/10
