# Blender v2.79 (sub 0) OBJ File: ''
# www.blender.org
o ITEM_Cube_Cube.003
v 0.250000 -0.250000 -0.435659
v 0.125169 -0.125169 -0.528328
v 0.125169 0.125169 -0.528328
v 0.250000 0.250000 -0.435659
v -0.125169 0.125169 -0.528328
v -0.250000 0.250000 -0.435659
v -0.125169 -0.125169 -0.528328
v -0.250000 -0.250000 -0.435659
v 0.250000 0.250000 -0.028328
v -0.250000 0.250000 -0.028328
v -0.250000 -0.250000 -0.028328
v 0.250000 -0.250000 -0.028328
vt 0.000000 0.500000
vt 0.099717 0.375168
vt 0.299690 0.375168
vt 0.399407 0.500000
vt 0.299690 0.124831
vt 0.399407 0.000000
vt 0.099717 0.124831
vt 0.000000 0.000000
vt 0.399406 1.000000
vt 0.000000 1.000000
vt 0.000000 0.500000
vt 0.399406 0.500000
vt 0.399407 0.500000
vt 0.699703 0.500000
vt 0.699703 0.999999
vt 0.399407 0.999999
vt 0.699703 0.500000
vt 0.399407 0.500000
vt 0.399407 0.000000
vt 0.699703 0.000000
vt 0.699703 0.500001
vt 1.000000 0.500000
vt 1.000000 1.000000
vt 0.699703 1.000000
vt 0.699703 0.000000
vt 1.000000 0.000000
vn 0.5961 -0.0000 -0.8029
vn 0.0000 0.5961 -0.8029
vn -0.5961 -0.0000 -0.8029
vn 0.0000 -0.5961 -0.8029
vn 0.0000 0.0000 1.0000
vn 0.0000 -0.0000 -1.0000
vn 0.0000 -1.0000 0.0000
vn -1.0000 0.0000 0.0000
vn 0.0000 1.0000 -0.0000
vn 1.0000 0.0000 0.0000
s 1
f 1/1/1 2/2/1 3/3/1 4/4/1
f 4/4/2 3/3/2 5/5/2 6/6/2
f 6/6/3 5/5/3 7/7/3 8/8/3
f 8/8/4 7/7/4 2/2/4 1/1/4
f 9/9/5 10/10/5 11/11/5 12/12/5
f 5/5/6 3/3/6 2/2/6 7/7/6
f 11/13/7 8/14/7 1/15/7 12/16/7
f 10/17/8 6/18/8 8/19/8 11/20/8
f 9/21/9 4/22/9 6/23/9 10/24/9
f 12/25/10 1/26/10 4/22/10 9/21/10
