# Blender v2.79 (sub 0) OBJ File: ''
# www.blender.org
o Circle.001_Circle.001
v 0.000000 -0.284404 0.000000
v 0.000000 -0.186873 -0.203435
v 0.203435 -0.186873 -0.101717
v 0.203435 -0.186873 0.101717
v 0.000000 -0.186873 0.203435
v -0.203435 -0.186873 0.101717
v -0.203435 -0.186873 -0.101717
v 0.000000 -0.087167 -0.250000
v -0.250000 -0.087167 -0.125000
v -0.212673 0.026005 -0.106337
v -0.250000 -0.087167 0.125000
v -0.212673 0.026005 0.106337
v 0.000000 -0.087167 0.250000
v 0.250000 -0.087167 -0.125000
v 0.250000 -0.087167 0.125000
v 0.000000 0.121596 -0.139939
v 0.000000 0.026005 -0.212673
v -0.139938 0.121596 -0.069969
v 0.000000 0.026005 0.212673
v 0.212673 0.026005 0.106336
v 0.212673 0.026005 -0.106337
v -0.096572 0.225435 -0.048286
v -0.139938 0.121596 0.069969
v -0.096572 0.225435 0.048286
v 0.000000 0.121596 0.139939
v 0.139938 0.121596 -0.069969
v 0.139938 0.121596 0.069969
v 0.000000 0.225435 0.096572
v 0.096572 0.225435 0.048286
v 0.096572 0.225435 -0.048286
v 0.000000 0.225435 -0.096572
v 0.000000 0.338220 0.128741
v 0.128741 0.338220 0.064371
v 0.088300 0.340458 -0.044150
v 0.128741 0.338220 -0.064371
v 0.000000 0.338220 -0.128741
v 0.000000 0.340458 -0.088300
v -0.128741 0.338220 -0.064371
v -0.128741 0.338220 0.064371
v 0.117049 0.415596 0.058524
v 0.088300 0.340458 0.044150
v 0.117049 0.415596 -0.058525
v -0.088300 0.340458 -0.044150
v -0.088300 0.340458 0.044150
v 0.000000 0.340458 0.088300
v 0.000000 0.415596 -0.117049
v -0.117049 0.415596 -0.058525
v -0.117049 0.415596 0.058524
v 0.000000 0.415596 0.117049
vt 0.790360 0.723717
vt 0.572142 0.647612
vt 0.708954 0.566219
vt 0.819266 0.548236
vt 0.965895 0.583537
vt 0.246224 0.816151
vt 0.194944 0.636075
vt 0.310877 0.640296
vt 0.038683 0.689577
vt 0.459506 0.704658
vt 0.514110 0.606997
vt 0.318193 0.576770
vt 0.322384 0.499536
vt 0.186318 0.570366
vt 0.185433 0.497916
vt 0.000124 0.585537
vt 0.687955 0.505926
vt 0.514358 0.557623
vt 0.999876 0.486360
vt 0.815308 0.486112
vt 0.445631 0.374294
vt 0.497804 0.487386
vt 0.317841 0.405600
vt 0.970160 0.371256
vt 0.802586 0.413496
vt 0.672895 0.437825
vt 0.024278 0.476212
vt 0.514358 0.449570
vt 0.306260 0.297887
vt 0.196827 0.410259
vt 0.209288 0.308140
vt 0.077600 0.382745
vt 0.662932 0.347002
vt 0.545519 0.346972
vt 0.898325 0.274700
vt 0.779597 0.329200
vt 0.836820 0.187591
vt 0.751075 0.221395
vt 0.656436 0.247243
vt 0.395551 0.274723
vt 0.120223 0.289229
vt 0.566939 0.249989
vt 0.820495 0.087601
vt 0.721805 0.126415
vt 0.632528 0.117972
vt 0.635208 0.144736
vt 0.545209 0.151095
vt 0.556735 0.127748
vt 0.387624 0.171045
vt 0.291797 0.204670
vt 0.213308 0.206731
vt 0.125039 0.180642
vt 0.695275 0.026860
vt 0.713792 0.092316
vt 0.619197 0.047194
vt 0.287160 0.174290
vt 0.217124 0.183514
vt 0.788754 0.062140
vt 0.356608 0.145135
vt 0.146144 0.161959
vt 0.331247 0.079086
vt 0.274139 0.127008
vt 0.223784 0.130290
vt 0.165374 0.091084
vt 0.194480 0.000124
vt 0.285658 0.000124
vt 0.530436 0.069656
vt 0.780945 0.000124
vn 0.2113 -0.8814 -0.4225
vn 0.2113 -0.8814 0.4225
vn -0.4323 -0.9017 0.0000
vn 0.4323 -0.9017 0.0000
vn -0.2113 -0.8814 0.4225
vn -0.2113 -0.8814 -0.4225
vn -0.4127 -0.3854 -0.8253
vn -0.9497 0.3132 -0.0000
vn -0.4127 -0.3854 0.8253
vn 0.4127 -0.3854 -0.8253
vn -0.9061 -0.4232 0.0000
vn 0.4127 -0.3854 0.8253
vn 0.9061 -0.4232 0.0000
vn -0.3697 0.5626 -0.7394
vn 0.4289 0.2830 0.8579
vn 0.9497 0.3132 -0.0000
vn -0.4289 0.2830 -0.8579
vn -0.4289 0.2829 -0.8579
vn -0.4289 0.2829 0.8579
vn -0.4289 0.2830 0.8579
vn 0.4289 0.2829 -0.8579
vn 0.4289 0.2830 -0.8579
vn -0.9228 0.3854 -0.0000
vn -0.3697 0.5626 0.7394
vn 0.3697 0.5626 -0.7394
vn -0.7958 0.6055 -0.0000
vn 0.3697 0.5626 0.7394
vn 0.7958 0.6055 -0.0000
vn 0.4189 0.3499 0.8379
vn 0.9228 0.3854 -0.0000
vn -0.4189 0.3499 -0.8379
vn -0.4189 0.3499 0.8379
vn 0.4189 0.3499 -0.8379
vn 0.4333 -0.2472 0.8667
vn 0.0276 0.9981 -0.0552
vn 0.9616 -0.2743 0.0000
vn -0.4333 -0.2472 -0.8667
vn -0.4333 -0.2472 0.8667
vn 0.4333 -0.2472 -0.8667
vn -0.9616 -0.2743 0.0000
vn 0.9340 -0.3573 0.0000
vn -0.0553 0.9985 0.0000
vn 0.0276 0.9981 0.0552
vn 0.0553 0.9985 0.0000
vn -0.0276 0.9981 -0.0552
vn -0.0276 0.9981 0.0552
vn 0.0000 1.0000 0.0000
vn -0.4231 -0.3238 -0.8462
vn -0.4231 -0.3238 0.8462
vn 0.4231 -0.3238 -0.8462
vn -0.9340 -0.3574 0.0000
vn -0.9340 -0.3573 0.0000
vn 0.4231 -0.3238 0.8462
s 1
f 1/1/1 2/2/1 3/3/1
s 2
f 1/1/2 4/4/2 5/5/2
s 3
f 1/6/3 6/7/3 7/8/3
s 4
f 1/1/4 3/3/4 4/4/4
s 5
f 1/6/5 5/9/5 6/7/5
s 6
f 1/6/6 7/8/6 2/10/6
s 7
f 8/11/7 2/10/7 7/8/7
f 7/8/7 9/12/7 8/11/7
s 8
f 10/13/8 9/12/8 11/14/8
f 11/14/8 12/15/8 10/13/8
s 9
f 11/14/9 6/7/9 5/9/9
f 5/9/9 13/16/9 11/14/9
s 10
f 14/17/10 3/3/10 2/2/10
f 2/2/10 8/18/10 14/17/10
s 11
f 9/12/11 7/8/11 6/7/11
f 6/7/11 11/14/11 9/12/11
s 12
f 13/19/12 5/5/12 4/4/12
f 4/4/12 15/20/12 13/19/12
s 13
f 15/20/13 4/4/13 3/3/13
f 3/3/13 14/17/13 15/20/13
s 14
f 16/21/14 17/22/14 10/13/14
f 10/13/14 18/23/14 16/21/14
s 15
f 19/24/15 13/19/15 15/20/15
f 15/20/15 20/25/15 19/24/15
s 16
f 20/25/16 15/20/16 14/17/16
f 14/17/16 21/26/16 20/25/16
s 17
f 17/22/17 8/11/17 9/12/18
f 9/12/18 10/13/18 17/22/17
s 18
f 12/15/19 11/14/19 13/16/20
f 13/16/20 19/27/20 12/15/19
s 19
f 21/26/21 14/17/21 8/18/22
f 8/18/22 17/28/22 21/26/21
s 20
f 22/29/23 18/23/23 23/30/23
f 23/30/23 24/31/23 22/29/23
s 21
f 23/30/24 12/15/24 19/27/24
f 19/27/24 25/32/24 23/30/24
s 22
f 26/33/25 21/26/25 17/28/25
f 17/28/25 16/34/25 26/33/25
s 23
f 18/23/26 10/13/26 12/15/26
f 12/15/26 23/30/26 18/23/26
s 24
f 25/35/27 19/24/27 20/25/27
f 20/25/27 27/36/27 25/35/27
s 25
f 27/36/28 20/25/28 21/26/28
f 21/26/28 26/33/28 27/36/28
s 26
f 28/37/29 25/35/29 27/36/29
f 27/36/29 29/38/29 28/37/29
s 27
f 29/38/30 27/36/30 26/33/30
f 26/33/30 30/39/30 29/38/30
s 28
f 31/40/31 16/21/31 18/23/31
f 18/23/31 22/29/31 31/40/31
s 29
f 24/31/32 23/30/32 25/32/32
f 25/32/32 28/41/32 24/31/32
s 30
f 30/39/33 26/33/33 16/34/33
f 16/34/33 31/42/33 30/39/33
s 31
f 32/43/34 28/37/34 29/38/34
f 29/38/34 33/44/34 32/43/34
s 32
f 34/45/35 35/46/35 36/47/35
f 36/47/35 37/48/35 34/45/35
s 33
f 33/44/36 29/38/36 30/39/36
f 30/39/36 35/46/36 33/44/36
s 34
f 36/49/37 31/40/37 22/29/37
f 22/29/37 38/50/37 36/49/37
s 35
f 39/51/38 24/31/38 28/41/38
f 28/41/38 32/52/38 39/51/38
s 36
f 35/46/39 30/39/39 31/42/39
f 31/42/39 36/47/39 35/46/39
s 37
f 38/50/40 22/29/40 24/31/40
f 24/31/40 39/51/40 38/50/40
s 38
f 40/53/41 41/54/41 34/45/41
f 34/45/41 42/55/41 40/53/41
s 39
f 43/56/42 38/50/42 39/51/42
f 39/51/42 44/57/42 43/56/42
s 40
f 45/58/43 32/43/43 33/44/43
f 33/44/43 41/54/43 45/58/43
s 41
f 41/54/44 33/44/44 35/46/44
f 35/46/44 34/45/44 41/54/44
s 42
f 37/59/45 36/49/45 38/50/45
f 38/50/45 43/56/45 37/59/45
s 43
f 44/57/46 39/51/46 32/52/46
f 32/52/46 45/60/46 44/57/46
s 44
f 46/61/47 47/62/47 48/63/47
f 46/61/47 48/63/47 49/64/47
f 46/61/47 49/64/47 40/65/47
f 40/65/47 42/66/47 46/61/47
s 45
f 46/61/48 37/59/48 43/56/48
f 43/56/48 47/62/48 46/61/48
s 46
f 48/63/49 44/57/49 45/60/49
f 45/60/49 49/64/49 48/63/49
s 47
f 42/55/50 34/45/50 37/48/50
f 37/48/50 46/67/50 42/55/50
s 48
f 47/62/51 43/56/51 44/57/52
f 44/57/52 48/63/52 47/62/51
s 49
f 49/68/53 45/58/53 41/54/53
f 41/54/53 40/53/53 49/68/53
