# Blender v2.79 (sub 0) OBJ File: ''
# www.blender.org
o SPAWN_Cube_Cube.009
v -0.545896 2.100091 -0.091810
v -2.012563 0.846812 1.520794
v -0.545896 2.100090 1.520795
v -0.086242 -0.096959 -2.479206
v -0.288859 -0.096959 -2.479206
v -0.288859 0.436396 -2.479206
v -0.086242 0.436396 -2.479206
v 0.097956 0.436396 -2.479206
v 0.263733 0.436396 -2.479206
v 0.263733 -0.096959 -2.479206
v 0.097956 -0.096959 -2.479206
v 0.787437 -1.760657 1.520793
v 1.987437 -1.760657 1.520793
v 1.987437 0.846812 1.520794
v 0.787437 2.100090 1.520795
v 1.987437 0.846813 -0.782927
v 1.987437 -1.760656 -0.782929
v -2.012563 -1.760655 -0.782929
v -2.012563 0.846813 -0.782928
v -0.545896 2.100091 -0.782926
v 0.787437 2.100091 -0.782926
v 0.787437 2.100091 -0.091810
v -2.012563 -1.760656 -0.091812
v -2.012563 -1.760657 1.520793
v 0.787437 -1.760656 -0.782929
v -0.545896 -1.760656 -0.782929
v 1.987437 -1.760657 -0.091812
v -0.545896 -1.760657 1.520793
v -0.545897 2.239343 1.520795
v -0.545896 2.239344 -0.091810
v 0.690714 2.239343 1.408940
v 0.690714 2.239344 0.020045
v 0.690714 2.053673 0.020045
v 0.690714 2.053672 1.408940
v 0.787437 2.239343 1.520795
v 0.787437 2.239344 -0.091810
v -0.449173 2.239343 1.408940
v -0.449173 2.239344 0.020045
v -0.449173 2.053673 0.020045
v -0.449173 2.053672 1.408940
vt 0.492101 0.175087
vt 0.824455 0.000000
vt 0.492101 0.000000
vt 0.492101 0.502931
vt 0.704160 0.233770
vt 0.704160 0.209181
vt 0.772142 0.209181
vt 0.772142 0.233770
vt 0.772142 0.256123
vt 0.772142 0.276241
vt 0.704160 0.276241
vt 0.704160 0.256123
vt 0.147630 0.502931
vt 0.000000 0.502931
vt 0.000000 0.175087
vt 0.147630 0.017509
vt 0.824455 0.485422
vt 0.492101 0.485423
vt 1.000000 0.654647
vt 0.073522 0.680919
vt 0.984201 0.177988
vt 0.000000 0.842727
vt 0.000000 0.680919
vt 0.073522 0.842727
vt 0.492101 0.339796
vt 0.492101 0.177988
vt 0.810698 0.485423
vt 0.982250 0.485423
vt 0.982250 0.631049
vt 0.982250 0.792857
vt 0.982250 0.970845
vt 0.810698 0.970845
vt 0.737176 0.970845
vt 0.737176 0.792857
vt 0.737176 0.631049
vt 0.737176 0.485423
vt 0.984201 0.339796
vt 0.311664 0.502931
vt 0.311664 0.017509
vt 1.000000 0.485423
vt 0.982250 0.654647
vt 0.982250 0.485423
vt 0.432775 0.976524
vt 0.432775 0.830776
vt 0.456441 0.830776
vt 0.456441 0.976524
vt 0.147630 0.000000
vt 0.311664 0.000000
vt 0.737176 0.502931
vt 0.565623 0.502931
vt 0.565623 0.485423
vt 0.737176 0.485423
vt 0.982250 0.816454
vt 0.982250 0.654647
vt 1.000000 0.654647
vt 1.000000 0.816454
vt 0.256974 0.988262
vt 0.397209 0.988262
vt 0.409108 1.000000
vt 0.245075 1.000000
vt 0.397209 0.842514
vt 0.256974 0.842514
vt 0.245075 0.830776
vt 0.409108 0.830776
vt 0.000000 0.842727
vt 0.140235 0.842727
vt 0.140235 0.988476
vt 0.000000 0.988476
vt 0.480107 0.830776
vt 0.480107 0.969107
vt 0.456441 0.969107
vt 0.456441 0.830776
vt 0.432774 0.830776
vt 0.432775 0.976524
vt 0.409108 0.976524
vt 0.409108 0.830776
vt 0.163901 0.842727
vt 0.163901 0.981059
vt 0.140235 0.981059
vt 0.140235 0.842727
vn -0.9082 0.4185 0.0000
vn -1.0000 0.0000 0.0000
vn -0.0000 0.0000 -1.0000
vn 0.0000 -0.0000 1.0000
vn 0.7014 0.0000 -0.7128
vn -0.7014 0.0000 -0.7128
vn -0.6496 0.7602 0.0000
vn 0.9280 0.3726 0.0000
vn 1.0000 -0.0000 -0.0000
vn 0.0000 1.0000 0.0000
vn 0.0000 -0.7139 -0.7002
vn -0.0000 -1.0000 -0.0000
vn 0.7223 0.6916 0.0000
vn 0.5365 0.5137 -0.6695
vn -0.0000 0.7139 -0.7002
vn -0.4964 0.5810 -0.6450
s 1
f 2/1/1 19/2/1 18/3/2 24/4/2
f 4/5/3 5/6/3 6/7/3 7/8/3 8/9/3 9/10/3 10/11/3 11/12/3
f 12/13/4 13/14/4 14/15/4 15/16/4
f 10/11/5 9/10/5 16/17/5 17/18/5
f 6/7/6 5/6/6 18/3/6 19/2/6
f 2/1/1 3/19/7 1/20/7 20/21/7 19/2/1
f 16/17/8 14/15/8 13/14/9 17/18/9
f 21/22/10 20/23/10 1/20/10 22/24/10
f 11/12/11 10/11/11 17/18/11 25/25/11 26/26/11 18/3/11 5/6/11 4/5/11
f 27/27/12 13/28/12 12/29/12 28/30/12 24/31/12 23/32/12 18/33/12 26/34/12 25/35/12 17/36/12
f 15/16/13 14/15/8 16/17/8 21/37/13
f 24/4/4 28/38/4 3/39/4 2/1/4
f 28/38/4 12/13/4 15/16/4 3/39/4
f 1/40/2 3/19/2 29/41/2 30/42/2
f 31/43/2 32/44/2 33/45/2 34/46/2
f 3/39/4 15/16/4 35/47/4 29/48/4
f 15/49/9 22/50/9 36/51/9 35/52/9
f 22/53/3 1/54/3 30/55/3 36/56/3
f 31/57/10 37/58/10 29/59/10 35/60/10
f 38/61/10 32/62/10 36/63/10 30/64/10
f 32/62/10 31/57/10 35/60/10 36/63/10
f 37/58/10 38/61/10 30/64/10 29/59/10
f 33/65/10 39/66/10 40/67/10 34/68/10
f 37/69/3 31/70/3 34/71/3 40/72/3
f 38/73/9 37/74/9 40/75/9 39/76/9
f 32/77/4 38/78/4 39/79/4 33/80/4
f 9/10/14 21/37/14 16/17/14
f 6/7/15 20/21/15 21/37/15 9/10/15 8/9/15 7/8/15
f 20/21/16 6/7/16 19/2/16
