# Blender v2.79 (sub 0) OBJ File: 'Well.blend'
# www.blender.org
o Cylinder
v -0.188846 -0.462966 -0.005191
v -0.149009 -0.365305 -1.177502
v 0.193832 -0.460900 -0.005191
v 0.152944 -0.363675 -1.177502
v 0.462966 -0.188845 -0.005191
v 0.389753 -0.132482 -1.177502
v 0.460900 0.193832 -0.005191
v 0.388300 0.136681 -1.177502
v 0.188845 0.462966 -0.005191
v 0.149009 0.365305 -1.177502
v -0.193832 0.460900 -0.005191
v -0.152944 0.363675 -1.177502
v -0.462966 0.188845 -0.005191
v -0.389753 0.132482 -1.177502
v -0.460900 -0.193832 -0.005191
v -0.388301 -0.136681 -1.177502
v 0.193832 -0.460900 -1.177502
v -0.188846 -0.462966 -1.177502
v 0.438231 -0.152256 -1.177502
v 0.436561 0.156978 -1.177502
v 0.188845 0.462966 -1.177502
v -0.193832 0.460900 -1.177502
v -0.438231 0.152256 -1.177502
v -0.436561 -0.156978 -1.177502
v 0.152944 -0.363675 -0.697933
v -0.149009 -0.365305 -0.697933
v 0.365305 -0.149009 -0.697933
v 0.363675 0.152944 -0.697933
v 0.149009 0.365305 -0.697933
v -0.152944 0.363675 -0.697933
v -0.365305 0.149009 -0.697933
v -0.363675 -0.152944 -0.697933
v 0.460900 0.193832 -1.177502
v 0.462966 -0.188845 -1.177502
v -0.460900 -0.193832 -1.177502
v -0.462966 0.188845 -1.177502
v 0.363675 0.152944 -1.177502
v 0.365305 -0.149009 -1.177502
v -0.363675 -0.152944 -1.177502
v -0.365305 0.149009 -1.177502
v 0.436561 0.033028 -1.947829
v 0.438231 -0.032035 -1.947829
v -0.436561 -0.033028 -1.947829
v -0.438231 0.032035 -1.947829
v 0.388300 0.028758 -1.947829
v 0.389753 -0.027874 -1.947829
v -0.388301 -0.028758 -1.947829
v -0.389753 0.027874 -1.947829
v 0.436561 0.033028 -2.005191
v 0.438231 -0.032035 -2.005191
v -0.436561 -0.033028 -2.005191
v -0.438231 0.032035 -2.005191
v 0.388300 0.028758 -2.005191
v 0.389753 -0.027874 -2.005191
v -0.388301 -0.028758 -2.005191
v -0.389753 0.027874 -2.005191
v 0.041473 0.028463 -2.005191
v -0.041940 0.028169 -2.005191
v 0.041940 -0.028169 -2.005191
v -0.041473 -0.028463 -2.005191
v -0.041473 -0.028463 -1.947829
v 0.041940 -0.028169 -1.947829
v -0.041940 0.028169 -1.947829
v 0.041473 0.028463 -1.947829
v -0.041473 -0.028463 -0.972552
v 0.041940 -0.028169 -0.972552
v -0.041940 0.028169 -0.972552
v 0.041473 0.028463 -0.972552
vn 0.0054 -1.0000 0.0000
vn 0.7109 -0.7033 0.0000
vn 1.0000 0.0054 0.0000
vn 0.7033 0.7109 0.0000
vn -0.0054 1.0000 0.0000
vn -0.7109 0.7033 0.0000
vn -1.0000 -0.0054 0.0000
vn -0.7033 -0.7109 0.0000
vn 0.0000 0.0000 1.0000
vn -0.0000 0.0000 -1.0000
vn -0.2373 -0.9613 -0.1403
vn 0.2373 0.9613 -0.1403
vn -0.9997 -0.0256 0.0000
vn -1.0000 -0.0089 0.0000
vn 1.0000 0.0089 -0.0000
vn 0.2441 -0.9590 -0.1443
vn -0.2441 0.9590 -0.1443
vn 0.0855 0.9963 0.0000
vn -0.0855 -0.9963 0.0000
vn 0.0008 -1.0000 0.0000
vn 0.9997 0.0256 0.0000
vn 0.0881 -0.9961 0.0000
vn -0.0881 0.9961 0.0000
vn -0.0008 1.0000 0.0000
vn -1.0000 -0.0083 0.0000
vn -0.0035 1.0000 0.0000
vn 0.0035 -1.0000 0.0000
vn 1.0000 0.0083 0.0000
s off
f 1//1 18//1 17//1 3//1
f 3//2 17//2 34//2 5//2
f 5//3 34//3 33//3 7//3
f 7//4 33//4 21//4 9//4
f 9//5 21//5 22//5 11//5
f 11//6 22//6 36//6 13//6
f 2//4 39//4 32//4 26//4
f 13//7 36//7 35//7 15//7
f 15//8 35//8 18//8 1//8
f 1//9 3//9 5//9 7//9 9//9 11//9 13//9 15//9
f 2//10 4//10 17//10 18//10
f 4//10 38//10 34//10 17//10
f 19//11 6//11 46//11 42//11
f 37//10 10//10 21//10 33//10
f 10//10 12//10 22//10 21//10
f 12//10 40//10 36//10 22//10
f 23//12 14//12 48//12 44//12
f 39//10 2//10 18//10 35//10
f 25//10 26//10 32//10 31//10 30//10 29//10 28//10 27//10
f 40//2 12//2 30//2 31//2
f 10//8 37//8 28//8 29//8
f 38//6 4//6 25//6 27//6
f 39//3 40//3 31//3 32//3
f 12//1 10//1 29//1 30//1
f 37//7 38//7 27//7 28//7
f 4//5 2//5 26//5 25//5
f 19//10 20//10 33//10 34//10
f 23//10 24//10 35//10 36//10
f 8//10 6//10 38//10 37//10
f 16//10 14//10 40//10 39//10
f 6//10 19//10 34//10 38//10
f 20//10 8//10 37//10 33//10
f 14//10 23//10 36//10 40//10
f 24//10 16//10 39//10 35//10
f 43//13 44//13 52//13 51//13
f 58//10 60//10 55//10 56//10
f 6//14 8//14 45//14 46//14
f 20//15 19//15 42//15 41//15
f 16//16 24//16 43//16 47//16
f 8//17 20//17 41//17 45//17
f 14//15 16//15 47//15 48//15
f 24//14 23//14 44//14 43//14
f 54//10 53//10 49//10 50//10
f 56//10 55//10 51//10 52//10
f 44//18 48//18 56//18 52//18
f 42//19 46//19 54//19 50//19
f 59//20 54//20 46//20 62//20
f 41//21 42//21 50//21 49//21
f 47//22 43//22 51//22 55//22
f 45//23 41//23 49//23 53//23
f 57//24 64//24 45//24 53//24
f 63//9 48//9 47//9 61//9
f 45//9 64//9 62//9 46//9
f 63//25 61//25 65//25 67//25
f 56//24 48//24 63//24 58//24
f 58//26 63//26 64//26 57//26
f 55//20 60//20 61//20 47//20
f 60//27 59//27 62//27 61//27
f 53//10 54//10 59//10 57//10
f 57//10 59//10 60//10 58//10
f 68//9 67//9 65//9 66//9
f 64//26 63//26 67//26 68//26
f 61//27 62//27 66//27 65//27
f 62//28 64//28 68//28 66//28
