# Blender v2.79 (sub 0) OBJ File: ''
# www.blender.org
o Cylinder
v 0.188846 0.462966 0.502365
v 0.188846 0.462966 -0.669946
v -0.193832 0.460900 -0.669946
v -0.193832 0.460900 0.502365
v -0.462966 0.188845 -0.669945
v -0.462966 0.188845 0.502366
v -0.460900 -0.193832 -0.669945
v -0.460900 -0.193832 0.502366
v -0.188845 -0.462966 -0.669945
v -0.188845 -0.462966 0.502366
v 0.193832 -0.460900 -0.669945
v 0.193832 -0.460900 0.502366
v 0.462966 -0.188845 -0.669945
v 0.462966 -0.188845 0.502366
v 0.149009 0.365305 -0.669946
v 0.363675 0.152944 -0.669945
v 0.363675 0.152944 -0.190376
v 0.149009 0.365305 -0.190377
v 0.460900 0.193832 -0.669945
v 0.460900 0.193832 0.502366
v -0.152944 0.363675 -0.669946
v -0.365305 0.149009 -0.669945
v -0.438231 0.152256 -0.669945
v -0.389753 0.132482 -0.669945
v -0.389753 0.027873 -1.440272
v -0.438231 0.032034 -1.440272
v -0.363675 -0.152944 -0.669945
v -0.149009 -0.365305 -0.669945
v 0.152944 -0.363675 -0.669945
v 0.365305 -0.149009 -0.669945
v 0.438231 -0.152256 -0.669945
v 0.389753 -0.132482 -0.669945
v 0.389753 -0.027875 -1.440272
v 0.438231 -0.032036 -1.440272
v -0.152944 0.363675 -0.190377
v 0.365305 -0.149009 -0.190376
v 0.152944 -0.363675 -0.190376
v -0.149009 -0.365305 -0.190376
v -0.363675 -0.152944 -0.190376
v -0.365305 0.149009 -0.190376
v -0.436561 -0.156978 -0.669945
v 0.436561 0.156978 -0.669945
v -0.388300 -0.136681 -0.669945
v 0.388301 0.136681 -0.669945
v 0.436561 0.033027 -1.440272
v 0.438231 -0.032036 -1.497634
v 0.436561 0.033027 -1.497634
v 0.041940 -0.028170 -1.497634
v 0.041473 0.028462 -1.497634
v 0.388301 0.028757 -1.497634
v 0.389753 -0.027875 -1.497634
v -0.388300 -0.028759 -1.440272
v -0.436561 -0.033029 -1.440272
v 0.388301 0.028757 -1.440272
v -0.389753 0.027873 -1.497634
v -0.388300 -0.028759 -1.497634
v -0.436561 -0.033029 -1.497634
v -0.438231 0.032034 -1.497634
v -0.041940 0.028168 -1.497634
v -0.041940 0.028168 -1.440272
v -0.041473 -0.028464 -1.497634
v -0.041473 -0.028464 -1.440272
v 0.041940 -0.028170 -1.440272
v 0.041473 0.028462 -1.440272
v 0.041473 0.028463 -0.464995
v 0.041940 -0.028169 -0.464995
v -0.041473 -0.028463 -0.464995
v -0.041940 0.028169 -0.464995
vn -0.0054 1.0000 -0.0000
vn -0.7109 0.7033 -0.0000
vn -1.0000 -0.0054 0.0000
vn -0.7033 -0.7109 0.0000
vn 0.0054 -1.0000 0.0000
vn 0.7109 -0.7033 0.0000
vn 1.0000 0.0054 -0.0000
vn 0.7033 0.7109 -0.0000
vn 0.0000 0.0000 1.0000
vn -0.0000 -0.0000 -1.0000
vn 0.2373 0.9613 -0.1403
vn -0.2373 -0.9613 -0.1403
vn 0.9997 0.0257 -0.0000
vn 1.0000 0.0089 0.0000
vn -1.0000 -0.0089 -0.0000
vn -0.2441 0.9590 -0.1443
vn 0.2441 -0.9590 -0.1443
vn -0.0855 -0.9963 0.0000
vn 0.0855 0.9963 -0.0000
vn -0.0022 1.0000 -0.0000
vn -0.0008 1.0000 -0.0000
vn -0.0026 1.0000 -0.0000
vn -0.9997 -0.0257 0.0000
vn -0.0881 0.9961 -0.0000
vn 0.0881 -0.9961 0.0000
vn 0.0022 -1.0000 0.0000
vn 0.0026 -1.0000 0.0000
vn 0.0009 -1.0000 0.0000
vn 1.0000 0.0082 -0.0000
vn 0.0008 -1.0000 0.0000
vn -0.0009 1.0000 -0.0000
vn 0.0035 -1.0000 0.0000
vn -0.0035 1.0000 -0.0000
vn -1.0000 -0.0082 0.0000
s 1
f 1//1 2//1 3//1 4//1
f 4//2 3//2 5//2 6//2
f 6//3 5//3 7//3 8//3
f 8//4 7//4 9//4 10//4
f 10//5 9//5 11//5 12//5
f 12//6 11//6 13//6 14//6
f 15//4 16//4 17//4 18//4
f 14//7 13//7 19//7 20//7
f 20//8 19//8 2//8 1//8
f 1//9 4//9 6//9 8//9 10//9 12//9 14//9 20//9
f 15//10 21//10 3//10 2//10
f 21//10 22//10 5//10 3//10
f 23//11 24//11 25//11 26//11
f 27//10 28//10 9//10 7//10
f 28//10 29//10 11//10 9//10
f 29//10 30//10 13//10 11//10
f 31//12 32//12 33//12 34//12
f 16//10 15//10 2//10 19//10
f 35//10 18//10 17//10 36//10 37//10 38//10 39//10 40//10
f 30//2 29//2 37//2 36//2
f 28//8 27//8 39//8 38//8
f 22//6 21//6 35//6 40//6
f 16//3 30//3 36//3 17//3
f 29//1 28//1 38//1 37//1
f 27//7 22//7 40//7 39//7
f 21//5 15//5 18//5 35//5
f 23//10 41//10 7//10 5//10
f 31//10 42//10 19//10 13//10
f 43//10 24//10 22//10 27//10
f 44//10 32//10 30//10 16//10
f 24//10 23//10 5//10 22//10
f 41//10 43//10 27//10 7//10
f 32//10 31//10 13//10 30//10
f 42//10 44//10 16//10 19//10
f 45//13 34//13 46//13 47//13
f 48//10 49//10 50//10 51//10
f 24//14 43//14 52//14 25//14
f 41//15 23//15 26//15 53//15
f 44//16 42//16 45//16 54//16
f 43//17 41//17 53//17 52//17
f 32//15 44//15 54//15 33//15
f 42//14 31//14 34//14 45//14
f 55//10 56//10 57//10 58//10
f 51//10 50//10 47//10 46//10
f 34//18 33//18 51//18 46//18
f 26//19 25//19 55//19 58//19
f 59//20 55//21 25//21 60//22
f 53//23 26//23 58//23 57//23
f 54//24 45//24 47//24 50//24
f 52//25 53//25 57//25 56//25
f 61//26 62//27 52//28 56//28
f 63//9 33//9 54//9 64//9
f 52//9 62//9 60//9 25//9
f 63//29 64//29 65//29 66//29
f 51//30 33//30 63//27 48//26
f 48//26 63//27 62//27 61//26
f 50//31 49//20 64//22 54//31
f 49//20 59//20 60//22 64//22
f 56//10 55//10 59//10 61//10
f 61//10 59//10 49//10 48//10
f 67//9 66//9 65//9 68//9
f 62//27 63//27 66//32 67//32
f 64//22 60//22 68//33 65//33
f 60//34 62//34 67//34 68//34
